<?xml version="1.0" encoding="UTF-8" standalone="no"?>
<svg
   xmlns:dc="http://purl.org/dc/elements/1.1/"
   xmlns:cc="http://creativecommons.org/ns#"
   xmlns:rdf="http://www.w3.org/1999/02/22-rdf-syntax-ns#"
   xmlns:svg="http://www.w3.org/2000/svg"
   xmlns="http://www.w3.org/2000/svg"
   xmlns:xlink="http://www.w3.org/1999/xlink"
   version="1.1"
   id="svg2"
   height="297mm"
   width="210mm">
  <defs
     id="defs4">
    <linearGradient
       id="linearGradient19050">
      <stop
         id="stop19052"
         offset="0"
         style="stop-color:#ffff00;stop-opacity:1;" />
      <stop
         id="stop19054"
         offset="1"
         style="stop-color:#ffff00;stop-opacity:0;" />
    </linearGradient>
    <linearGradient
       id="linearGradient19023">
      <stop
         id="stop19025"
         offset="0"
         style="stop-color:#ffff00;stop-opacity:1;" />
      <stop
         id="stop19027"
         offset="1"
         style="stop-color:#ffff00;stop-opacity:0;" />
    </linearGradient>
    <filter
       id="filter10627"
       color-interpolation-filters="sRGB"
       x="0"
       y="0"
       width="1"
       height="1">
      <feTurbulence
         id="feTurbulence10629"
         result="result0"
         seed="0"
         baseFrequency="1"
         numOctaves="3"
         type="fractalNoise" />
      <feColorMatrix
         id="feColorMatrix10631"
         type="saturate"
         values="0"
         result="result4" />
      <feComposite
         id="feComposite10633"
         result="result2"
         k3="0.5"
         k2="0.5"
         k1="1.25"
         operator="arithmetic"
         in2="result4"
         in="SourceGraphic" />
      <feBlend
         id="feBlend10635"
         in2="SourceGraphic"
         in="result2"
         mode="normal"
         result="result5" />
      <feComposite
         id="feComposite10637"
         result="result3"
         operator="in"
         in2="SourceGraphic"
         in="result5" />
    </filter>
    <filter
       id="filter10641"
       color-interpolation-filters="sRGB"
       x="0"
       y="0"
       width="1"
       height="1">
      <feTurbulence
         id="feTurbulence10643"
         result="result0"
         seed="0"
         baseFrequency="1"
         numOctaves="3"
         type="fractalNoise" />
      <feColorMatrix
         id="feColorMatrix10645"
         type="saturate"
         values="0"
         result="result4" />
      <feComposite
         id="feComposite10647"
         result="result2"
         k3="0.5"
         k2="0.5"
         k1="1.25"
         operator="arithmetic"
         in2="result4"
         in="SourceGraphic" />
      <feBlend
         id="feBlend10649"
         in2="SourceGraphic"
         in="result2"
         mode="normal"
         result="result5" />
      <feComposite
         id="feComposite10651"
         result="result3"
         operator="in"
         in2="SourceGraphic"
         in="result5" />
    </filter>
    <filter
       id="filter10787"
       color-interpolation-filters="sRGB"
       x="-0.3"
       width="1.6"
       y="-0.5"
       height="2">
      <feGaussianBlur
         id="feGaussianBlur10789"
         result="result8"
         stdDeviation="15" />
      <feTurbulence
         id="feTurbulence10791"
         baseFrequency="0.025"
         numOctaves="5"
         type="fractalNoise"
         result="result7"
         seed="27" />
      <feComposite
         id="feComposite10793"
         in="result7"
         operator="over"
         result="result6"
         in2="result8" />
      <feColorMatrix
         id="feColorMatrix10795"
         values="1 0 0 0 0 0 1 0 0 0 0 0 1 0 0 0 0 0 6 -4 "
         result="result9" />
      <feDisplacementMap
         id="feDisplacementMap10797"
         result="result4"
         scale="50"
         yChannelSelector="A"
         xChannelSelector="A"
         in2="result9"
         in="result7" />
      <feComposite
         id="feComposite10800"
         in="result8"
         operator="in"
         result="result2"
         in2="result4" />
      <feComposite
         id="feComposite10802"
         in2="result9"
         operator="in"
         in="result2"
         result="fbSourceGraphic" />
      <feComposite
         id="feComposite10804"
         result="result91"
         in2="fbSourceGraphic"
         in="fbSourceGraphic"
         k1="0.5"
         k2="1"
         operator="arithmetic" />
      <feBlend
         id="feBlend10806"
         in2="result91"
         mode="multiply"
         in="fbSourceGraphic" />
    </filter>
    <filter
       height="1.4036109"
       y="-0.20180543"
       width="1.4179315"
       x="-0.20896577"
       id="filter11000">
      <feGaussianBlur
         id="feGaussianBlur11002"
         stdDeviation="3.2204615" />
    </filter>
    <filter
       height="1.2315231"
       y="-0.11576154"
       width="1.1506226"
       x="-0.075311304"
       id="filter13139">
      <feGaussianBlur
         id="feGaussianBlur13141"
         stdDeviation="2.2087919" />
    </filter>
    <filter
       id="filter13143">
      <feGaussianBlur
         id="feGaussianBlur13145"
         stdDeviation="1.8774731" />
    </filter>
    <filter
       height="1.2083708"
       y="-0.10418539"
       width="1.1355603"
       x="-0.067780174"
       id="filter13147">
      <feGaussianBlur
         id="feGaussianBlur13149"
         stdDeviation="1.9879127" />
    </filter>
    <radialGradient
       gradientUnits="userSpaceOnUse"
       gradientTransform="matrix(0.82469646,0,0,0.54979764,0.9961061,299.35703)"
       r="480"
       fy="476.36218"
       fx="480"
       cy="476.36218"
       cx="480"
       id="radialGradient19029"
       xlink:href="#linearGradient19023" />
    <linearGradient
       gradientTransform="translate(-82.000039,-9.0000297)"
       gradientUnits="userSpaceOnUse"
       y2="348.36218"
       x2="128"
       y1="348.36218"
       x1="448"
       id="linearGradient19058"
       xlink:href="#linearGradient19050" />
    <linearGradient
       y2="348.36218"
       x2="128"
       y1="348.36218"
       x1="448"
       gradientUnits="userSpaceOnUse"
       id="linearGradient19070"
       xlink:href="#linearGradient19050" />
    <filter
       height="1.3316008"
       y="-0.1658004"
       width="1.3080496"
       x="-0.1540248"
       id="filter19084">
      <feGaussianBlur
         id="feGaussianBlur19086"
         stdDeviation="45.180608" />
    </filter>
    <filter
       height="1.3154945"
       y="-0.15774723"
       width="1.2930872"
       x="-0.14654359"
       id="filter19088">
      <feGaussianBlur
         id="feGaussianBlur19090"
         stdDeviation="42.986121" />
    </filter>
  </defs>
  <metadata
     id="metadata7">
    <rdf:RDF>
      <cc:Work
         rdf:about="">
        <dc:format>image/svg+xml</dc:format>
        <dc:type
           rdf:resource="http://purl.org/dc/dcmitype/StillImage" />
        <dc:title></dc:title>
      </cc:Work>
    </rdf:RDF>
  </metadata>
  <g
     style="display:inline"
     id="layer11">
    <g
       transform="matrix(0.82469646,0,0,0.82469646,0.99610528,273.96678)"
       id="g13155">
      <rect
         style="fill:#b3b3b3;fill-opacity:1;stroke:none"
         id="rect10532"
         width="960"
         height="640"
         x="0"
         y="28.362183" />
      <rect
         style="fill:#349a1a;fill-opacity:1;stroke:none"
         id="rect10567"
         width="960"
         height="64"
         x="0"
         y="28.362183"
         ry="0"
         rx="0" />
      <rect
         rx="0"
         ry="0"
         y="92.362183"
         x="0"
         height="64"
         width="960"
         id="rect10569"
         style="fill:#5abb19;fill-opacity:1;stroke:none" />
      <rect
         rx="0"
         ry="0"
         y="28.362183"
         x="0"
         height="64"
         width="960"
         id="rect10625"
         style="opacity:0.3745174;fill:#349a1a;fill-opacity:1;stroke:none;filter:url(#filter10627)" />
      <rect
         style="opacity:0.27799228;fill:#5abb19;fill-opacity:1;stroke:none;filter:url(#filter10641)"
         id="rect10639"
         width="960"
         height="64"
         x="0"
         y="92.362183"
         ry="0"
         rx="0" />
      <rect
         rx="0"
         ry="0"
         y="156.36218"
         x="0"
         height="64"
         width="960"
         id="rect10653"
         style="fill:#349a1a;fill-opacity:1;stroke:none" />
      <rect
         style="fill:#5abb19;fill-opacity:1;stroke:none"
         id="rect10655"
         width="960"
         height="64"
         x="0"
         y="220.36218"
         ry="0"
         rx="0" />
      <rect
         style="opacity:0.3745174;fill:#349a1a;fill-opacity:1;stroke:none;filter:url(#filter10627)"
         id="rect10657"
         width="960"
         height="64"
         x="0"
         y="156.36218"
         ry="0"
         rx="0" />
      <rect
         rx="0"
         ry="0"
         y="220.36218"
         x="0"
         height="64"
         width="960"
         id="rect10659"
         style="opacity:0.27799228;fill:#5abb19;fill-opacity:1;stroke:none;filter:url(#filter10641)" />
      <rect
         style="fill:#349a1a;fill-opacity:1;stroke:none"
         id="rect10661"
         width="960"
         height="64"
         x="0"
         y="284.36218"
         ry="0"
         rx="0" />
      <rect
         rx="0"
         ry="0"
         y="348.36218"
         x="0"
         height="64"
         width="960"
         id="rect10663"
         style="fill:#5abb19;fill-opacity:1;stroke:none" />
      <rect
         rx="0"
         ry="0"
         y="284.36218"
         x="0"
         height="64"
         width="960"
         id="rect10665"
         style="opacity:0.3745174;fill:#349a1a;fill-opacity:1;stroke:none;filter:url(#filter10627)" />
      <rect
         style="opacity:0.27799228;fill:#5abb19;fill-opacity:1;stroke:none;filter:url(#filter10641)"
         id="rect10667"
         width="960"
         height="64"
         x="0"
         y="348.36218"
         ry="0"
         rx="0" />
      <rect
         rx="0"
         ry="0"
         y="412.36218"
         x="0"
         height="64"
         width="960"
         id="rect10669"
         style="fill:#349a1a;fill-opacity:1;stroke:none" />
      <rect
         style="fill:#5abb19;fill-opacity:1;stroke:none"
         id="rect10671"
         width="960"
         height="64"
         x="0"
         y="476.36218"
         ry="0"
         rx="0" />
      <rect
         style="opacity:0.3745174;fill:#349a1a;fill-opacity:1;stroke:none;filter:url(#filter10627)"
         id="rect10673"
         width="960"
         height="64"
         x="0"
         y="412.36218"
         ry="0"
         rx="0" />
      <rect
         rx="0"
         ry="0"
         y="476.36218"
         x="0"
         height="64"
         width="960"
         id="rect10675"
         style="opacity:0.27799228;fill:#5abb19;fill-opacity:1;stroke:none;filter:url(#filter10641)" />
      <rect
         style="fill:#349a1a;fill-opacity:1;stroke:none"
         id="rect10677"
         width="960"
         height="64"
         x="0"
         y="540.36218"
         ry="0"
         rx="0" />
      <rect
         rx="0"
         ry="0"
         y="604.36218"
         x="0"
         height="64"
         width="960"
         id="rect10679"
         style="fill:#5abb19;fill-opacity:1;stroke:none" />
      <rect
         rx="0"
         ry="0"
         y="540.36218"
         x="0"
         height="64"
         width="960"
         id="rect10681"
         style="opacity:0.3745174;fill:#349a1a;fill-opacity:1;stroke:none;filter:url(#filter10627)" />
      <rect
         style="opacity:0.27799228;fill:#5abb19;fill-opacity:1;stroke:none;filter:url(#filter10641)"
         id="rect10683"
         width="960"
         height="64"
         x="0"
         y="604.36218"
         ry="0"
         rx="0" />
      <rect
         style="opacity:0.07000002;fill:#000000;fill-opacity:1;stroke:none;filter:url(#filter10787)"
         id="rect10785"
         width="128"
         height="128"
         x="192"
         y="92.362183" />
      <rect
         y="156.36218"
         x="448"
         height="128"
         width="128"
         id="rect10808"
         style="opacity:0.07000002;fill:#000000;fill-opacity:1;stroke:none;filter:url(#filter10787)" />
      <rect
         style="opacity:0.1;fill:#000000;fill-opacity:1;stroke:none;filter:url(#filter10787)"
         id="rect10810"
         width="128"
         height="128"
         x="576"
         y="156.36218"
         transform="matrix(-1,0,0,1,832,128)" />
      <rect
         transform="matrix(0,-1,-1,0,604.36218,860.36218)"
         y="156.36218"
         x="576"
         height="128"
         width="128"
         id="rect10812"
         style="opacity:0.07000002;fill:#000000;fill-opacity:1;stroke:none;filter:url(#filter10787)" />
      <rect
         transform="matrix(0,-0.9999998,-0.9999998,0,1052.3622,796.36204)"
         y="156.36218"
         x="576"
         height="128"
         width="128"
         id="rect10816"
         style="opacity:0.1;fill:#000000;fill-opacity:1;stroke:none;filter:url(#filter10787)" />
      <rect
         style="opacity:0.07000002;fill:#000000;fill-opacity:1;stroke:none;filter:url(#filter10787)"
         id="rect10818"
         width="128"
         height="128"
         x="576"
         y="156.36218"
         transform="matrix(0,-0.9999998,-0.9999998,0,348.36213,1180.362)" />
      <rect
         transform="rotate(90,480.00002,316.36219)"
         y="156.36218"
         x="576"
         height="128"
         width="128"
         id="rect10822"
         style="opacity:0.07000002;fill:#000000;fill-opacity:1;stroke:none;filter:url(#filter10787)" />
      <rect
         style="opacity:0.07000002;fill:#000000;fill-opacity:1;stroke:none;filter:url(#filter10787)"
         id="rect10824"
         width="128"
         height="128"
         x="576"
         y="156.36218"
         transform="rotate(90,607.99999,252.36219)" />
      <rect
         transform="rotate(90,415.99994,-67.637823)"
         y="156.36218"
         x="576"
         height="128"
         width="128"
         id="rect10826"
         style="opacity:0.07000002;fill:#000000;fill-opacity:1;stroke:none;filter:url(#filter10787)" />
      <rect
         style="opacity:0.07000002;fill:#000000;fill-opacity:1;stroke:none;filter:url(#filter10787)"
         id="rect10828"
         width="128"
         height="128"
         x="576"
         y="156.36218"
         transform="rotate(90,287.99996,188.36223)" />
      <rect
         transform="rotate(90,447.99997,220.3622)"
         y="156.36218"
         x="576"
         height="128"
         width="128"
         id="rect10830"
         style="opacity:0.07000002;fill:#000000;fill-opacity:1;stroke:none;filter:url(#filter10787)" />
      <rect
         style="opacity:0.1;fill:#000000;fill-opacity:1;stroke:none;filter:url(#filter10787)"
         id="rect10832"
         width="128"
         height="128"
         x="576"
         y="156.36218"
         transform="rotate(-90,864,252.36218)" />
      <g
         id="g12221"
         transform="translate(-193.40411,258.91883)"
         style="fill:#1a1a1a;filter:url(#filter13139)">
        <g
           style="opacity:0.07722006;fill:#1a1a1a;filter:url(#filter11000)"
           transform="matrix(0.30792014,0,0,0.30792014,783.94576,115.26216)"
           id="g12223">
          <path
             style="fill:#1a1a1a;fill-opacity:1;stroke:none"
             id="path12225"
             d="m 332.56183,385.2017 c -0.1312,-2.03289 -0.37006,-4.04029 -0.83316,-6.02414 -0.42758,-1.78142 -0.4251,-3.58367 -0.13839,-5.38234 0,0 9.41781,-4.55183 9.41781,-4.55183 v 0 c -0.45185,1.64241 -0.41477,3.31754 -0.0524,4.97924 0.41519,2.02117 0.67301,4.04992 0.89321,6.10069 0,0 -9.28704,4.87838 -9.28704,4.87838 z" />
          <path
             style="fill:#1a1a1a;fill-opacity:1;stroke:none"
             id="path12227"
             d="m 343.22907,383.64191 c 0.35061,-7.2166 1.47709,-14.37355 2.4306,-21.52923 0.51072,-3.60541 1.03833,-7.20656 1.64049,-10.79772 0,0 9.07061,-4.41306 9.07061,-4.41306 v 0 c -0.73856,3.60225 -1.35392,7.22249 -1.88578,10.86181 -0.95087,6.99257 -2.09393,14.04877 -1.92098,21.12181 0,0 -9.33494,4.75639 -9.33494,4.75639 z" />
          <path
             style="fill:#1a1a1a;fill-opacity:1;stroke:none"
             id="path12229"
             d="m 352.44072,380.54992 c 0.59399,-6.68137 2.5168,-13.13564 4.67969,-19.45248 1.3312,-3.27152 0.67175,-1.71898 1.96621,-4.66278 0,0 9.28999,-4.24088 9.28999,-4.24088 v 0 c -1.40487,2.94357 -0.68848,1.39648 -2.13886,4.64604 -2.2747,6.09811 -4.29942,12.4117 -4.50063,18.97334 0,0 -9.2964,4.73676 -9.2964,4.73676 z" />
        </g>
        <g
           id="g12231"
           transform="matrix(0.30792014,0,0,0.30792014,801.94576,124.26216)"
           style="opacity:0.07722006;fill:#1a1a1a;filter:url(#filter11000)">
          <path
             d="m 332.56183,385.2017 c -0.1312,-2.03289 -0.37006,-4.04029 -0.83316,-6.02414 -0.42758,-1.78142 -0.4251,-3.58367 -0.13839,-5.38234 0,0 9.41781,-4.55183 9.41781,-4.55183 v 0 c -0.45185,1.64241 -0.41477,3.31754 -0.0524,4.97924 0.41519,2.02117 0.67301,4.04992 0.89321,6.10069 0,0 -9.28704,4.87838 -9.28704,4.87838 z"
             id="path12233"
             style="fill:#1a1a1a;fill-opacity:1;stroke:none" />
          <path
             d="m 343.22907,383.64191 c 0.35061,-7.2166 1.47709,-14.37355 2.4306,-21.52923 0.51072,-3.60541 1.03833,-7.20656 1.64049,-10.79772 0,0 9.07061,-4.41306 9.07061,-4.41306 v 0 c -0.73856,3.60225 -1.35392,7.22249 -1.88578,10.86181 -0.95087,6.99257 -2.09393,14.04877 -1.92098,21.12181 0,0 -9.33494,4.75639 -9.33494,4.75639 z"
             id="path12235"
             style="fill:#1a1a1a;fill-opacity:1;stroke:none" />
          <path
             d="m 352.44072,380.54992 c 0.59399,-6.68137 2.5168,-13.13564 4.67969,-19.45248 1.3312,-3.27152 0.67175,-1.71898 1.96621,-4.66278 0,0 9.28999,-4.24088 9.28999,-4.24088 v 0 c -1.40487,2.94357 -0.68848,1.39648 -2.13886,4.64604 -2.2747,6.09811 -4.29942,12.4117 -4.50063,18.97334 0,0 -9.2964,4.73676 -9.2964,4.73676 z"
             id="path12237"
             style="fill:#1a1a1a;fill-opacity:1;stroke:none" />
        </g>
        <g
           style="opacity:0.07722006;fill:#1a1a1a;filter:url(#filter11000)"
           transform="matrix(0.30792014,0,0,0.30792014,842.94576,120.26216)"
           id="g12239">
          <path
             style="fill:#1a1a1a;fill-opacity:1;stroke:none"
             id="path12241"
             d="m 332.56183,385.2017 c -0.1312,-2.03289 -0.37006,-4.04029 -0.83316,-6.02414 -0.42758,-1.78142 -0.4251,-3.58367 -0.13839,-5.38234 0,0 9.41781,-4.55183 9.41781,-4.55183 v 0 c -0.45185,1.64241 -0.41477,3.31754 -0.0524,4.97924 0.41519,2.02117 0.67301,4.04992 0.89321,6.10069 0,0 -9.28704,4.87838 -9.28704,4.87838 z" />
          <path
             style="fill:#1a1a1a;fill-opacity:1;stroke:none"
             id="path12243"
             d="m 343.22907,383.64191 c 0.35061,-7.2166 1.47709,-14.37355 2.4306,-21.52923 0.51072,-3.60541 1.03833,-7.20656 1.64049,-10.79772 0,0 9.07061,-4.41306 9.07061,-4.41306 v 0 c -0.73856,3.60225 -1.35392,7.22249 -1.88578,10.86181 -0.95087,6.99257 -2.09393,14.04877 -1.92098,21.12181 0,0 -9.33494,4.75639 -9.33494,4.75639 z" />
          <path
             style="fill:#1a1a1a;fill-opacity:1;stroke:none"
             id="path12245"
             d="m 352.44072,380.54992 c 0.59399,-6.68137 2.5168,-13.13564 4.67969,-19.45248 1.3312,-3.27152 0.67175,-1.71898 1.96621,-4.66278 0,0 9.28999,-4.24088 9.28999,-4.24088 v 0 c -1.40487,2.94357 -0.68848,1.39648 -2.13886,4.64604 -2.2747,6.09811 -4.29942,12.4117 -4.50063,18.97334 0,0 -9.2964,4.73676 -9.2964,4.73676 z" />
        </g>
        <g
           id="g12247"
           transform="matrix(0.30792014,0,0,0.30792014,831.94576,143.26216)"
           style="opacity:0.07722006;fill:#1a1a1a;filter:url(#filter11000)">
          <path
             d="m 332.56183,385.2017 c -0.1312,-2.03289 -0.37006,-4.04029 -0.83316,-6.02414 -0.42758,-1.78142 -0.4251,-3.58367 -0.13839,-5.38234 0,0 9.41781,-4.55183 9.41781,-4.55183 v 0 c -0.45185,1.64241 -0.41477,3.31754 -0.0524,4.97924 0.41519,2.02117 0.67301,4.04992 0.89321,6.10069 0,0 -9.28704,4.87838 -9.28704,4.87838 z"
             id="path12249"
             style="fill:#1a1a1a;fill-opacity:1;stroke:none" />
          <path
             d="m 343.22907,383.64191 c 0.35061,-7.2166 1.47709,-14.37355 2.4306,-21.52923 0.51072,-3.60541 1.03833,-7.20656 1.64049,-10.79772 0,0 9.07061,-4.41306 9.07061,-4.41306 v 0 c -0.73856,3.60225 -1.35392,7.22249 -1.88578,10.86181 -0.95087,6.99257 -2.09393,14.04877 -1.92098,21.12181 0,0 -9.33494,4.75639 -9.33494,4.75639 z"
             id="path12251"
             style="fill:#1a1a1a;fill-opacity:1;stroke:none" />
          <path
             d="m 352.44072,380.54992 c 0.59399,-6.68137 2.5168,-13.13564 4.67969,-19.45248 1.3312,-3.27152 0.67175,-1.71898 1.96621,-4.66278 0,0 9.28999,-4.24088 9.28999,-4.24088 v 0 c -1.40487,2.94357 -0.68848,1.39648 -2.13886,4.64604 -2.2747,6.09811 -4.29942,12.4117 -4.50063,18.97334 0,0 -9.2964,4.73676 -9.2964,4.73676 z"
             id="path12253"
             style="fill:#1a1a1a;fill-opacity:1;stroke:none" />
        </g>
        <g
           style="opacity:0.07722006;fill:#1a1a1a;filter:url(#filter11000)"
           transform="matrix(0.30792014,0,0,0.30792014,822.94576,121.26216)"
           id="g12255">
          <path
             style="fill:#1a1a1a;fill-opacity:1;stroke:none"
             id="path12257"
             d="m 332.56183,385.2017 c -0.1312,-2.03289 -0.37006,-4.04029 -0.83316,-6.02414 -0.42758,-1.78142 -0.4251,-3.58367 -0.13839,-5.38234 0,0 9.41781,-4.55183 9.41781,-4.55183 v 0 c -0.45185,1.64241 -0.41477,3.31754 -0.0524,4.97924 0.41519,2.02117 0.67301,4.04992 0.89321,6.10069 0,0 -9.28704,4.87838 -9.28704,4.87838 z" />
          <path
             style="fill:#1a1a1a;fill-opacity:1;stroke:none"
             id="path12259"
             d="m 343.22907,383.64191 c 0.35061,-7.2166 1.47709,-14.37355 2.4306,-21.52923 0.51072,-3.60541 1.03833,-7.20656 1.64049,-10.79772 0,0 9.07061,-4.41306 9.07061,-4.41306 v 0 c -0.73856,3.60225 -1.35392,7.22249 -1.88578,10.86181 -0.95087,6.99257 -2.09393,14.04877 -1.92098,21.12181 0,0 -9.33494,4.75639 -9.33494,4.75639 z" />
          <path
             style="fill:#1a1a1a;fill-opacity:1;stroke:none"
             id="path12261"
             d="m 352.44072,380.54992 c 0.59399,-6.68137 2.5168,-13.13564 4.67969,-19.45248 1.3312,-3.27152 0.67175,-1.71898 1.96621,-4.66278 0,0 9.28999,-4.24088 9.28999,-4.24088 v 0 c -1.40487,2.94357 -0.68848,1.39648 -2.13886,4.64604 -2.2747,6.09811 -4.29942,12.4117 -4.50063,18.97334 0,0 -9.2964,4.73676 -9.2964,4.73676 z" />
        </g>
        <g
           id="g12263"
           transform="matrix(0.30792014,0,0,0.30792014,792.94576,144.26216)"
           style="opacity:0.07722006;fill:#1a1a1a;filter:url(#filter11000)">
          <path
             d="m 332.56183,385.2017 c -0.1312,-2.03289 -0.37006,-4.04029 -0.83316,-6.02414 -0.42758,-1.78142 -0.4251,-3.58367 -0.13839,-5.38234 0,0 9.41781,-4.55183 9.41781,-4.55183 v 0 c -0.45185,1.64241 -0.41477,3.31754 -0.0524,4.97924 0.41519,2.02117 0.67301,4.04992 0.89321,6.10069 0,0 -9.28704,4.87838 -9.28704,4.87838 z"
             id="path12265"
             style="fill:#1a1a1a;fill-opacity:1;stroke:none" />
          <path
             d="m 343.22907,383.64191 c 0.35061,-7.2166 1.47709,-14.37355 2.4306,-21.52923 0.51072,-3.60541 1.03833,-7.20656 1.64049,-10.79772 0,0 9.07061,-4.41306 9.07061,-4.41306 v 0 c -0.73856,3.60225 -1.35392,7.22249 -1.88578,10.86181 -0.95087,6.99257 -2.09393,14.04877 -1.92098,21.12181 0,0 -9.33494,4.75639 -9.33494,4.75639 z"
             id="path12267"
             style="fill:#1a1a1a;fill-opacity:1;stroke:none" />
          <path
             d="m 352.44072,380.54992 c 0.59399,-6.68137 2.5168,-13.13564 4.67969,-19.45248 1.3312,-3.27152 0.67175,-1.71898 1.96621,-4.66278 0,0 9.28999,-4.24088 9.28999,-4.24088 v 0 c -1.40487,2.94357 -0.68848,1.39648 -2.13886,4.64604 -2.2747,6.09811 -4.29942,12.4117 -4.50063,18.97334 0,0 -9.2964,4.73676 -9.2964,4.73676 z"
             id="path12269"
             style="fill:#1a1a1a;fill-opacity:1;stroke:none" />
        </g>
        <g
           style="opacity:0.07722006;fill:#1a1a1a;filter:url(#filter11000)"
           transform="matrix(0.30792014,0,0,0.30792014,806.94576,149.26216)"
           id="g12271">
          <path
             style="fill:#1a1a1a;fill-opacity:1;stroke:none"
             id="path12273"
             d="m 332.56183,385.2017 c -0.1312,-2.03289 -0.37006,-4.04029 -0.83316,-6.02414 -0.42758,-1.78142 -0.4251,-3.58367 -0.13839,-5.38234 0,0 9.41781,-4.55183 9.41781,-4.55183 v 0 c -0.45185,1.64241 -0.41477,3.31754 -0.0524,4.97924 0.41519,2.02117 0.67301,4.04992 0.89321,6.10069 0,0 -9.28704,4.87838 -9.28704,4.87838 z" />
          <path
             style="fill:#1a1a1a;fill-opacity:1;stroke:none"
             id="path12275"
             d="m 343.22907,383.64191 c 0.35061,-7.2166 1.47709,-14.37355 2.4306,-21.52923 0.51072,-3.60541 1.03833,-7.20656 1.64049,-10.79772 0,0 9.07061,-4.41306 9.07061,-4.41306 v 0 c -0.73856,3.60225 -1.35392,7.22249 -1.88578,10.86181 -0.95087,6.99257 -2.09393,14.04877 -1.92098,21.12181 0,0 -9.33494,4.75639 -9.33494,4.75639 z" />
          <path
             style="fill:#1a1a1a;fill-opacity:1;stroke:none"
             id="path12277"
             d="m 352.44072,380.54992 c 0.59399,-6.68137 2.5168,-13.13564 4.67969,-19.45248 1.3312,-3.27152 0.67175,-1.71898 1.96621,-4.66278 0,0 9.28999,-4.24088 9.28999,-4.24088 v 0 c -1.40487,2.94357 -0.68848,1.39648 -2.13886,4.64604 -2.2747,6.09811 -4.29942,12.4117 -4.50063,18.97334 0,0 -9.2964,4.73676 -9.2964,4.73676 z" />
        </g>
      </g>
      <g
         id="g12337"
         transform="matrix(-1,0,0,1,1667.3441,69.414214)"
         style="fill:#1a1a1a;filter:url(#filter13147)">
        <g
           style="opacity:0.07722006;fill:#1a1a1a;filter:url(#filter11000)"
           transform="matrix(0.30792014,0,0,0.30792014,783.94576,115.26216)"
           id="g12339">
          <path
             style="fill:#1a1a1a;fill-opacity:1;stroke:none"
             id="path12341"
             d="m 332.56183,385.2017 c -0.1312,-2.03289 -0.37006,-4.04029 -0.83316,-6.02414 -0.42758,-1.78142 -0.4251,-3.58367 -0.13839,-5.38234 0,0 9.41781,-4.55183 9.41781,-4.55183 v 0 c -0.45185,1.64241 -0.41477,3.31754 -0.0524,4.97924 0.41519,2.02117 0.67301,4.04992 0.89321,6.10069 0,0 -9.28704,4.87838 -9.28704,4.87838 z" />
          <path
             style="fill:#1a1a1a;fill-opacity:1;stroke:none"
             id="path12343"
             d="m 343.22907,383.64191 c 0.35061,-7.2166 1.47709,-14.37355 2.4306,-21.52923 0.51072,-3.60541 1.03833,-7.20656 1.64049,-10.79772 0,0 9.07061,-4.41306 9.07061,-4.41306 v 0 c -0.73856,3.60225 -1.35392,7.22249 -1.88578,10.86181 -0.95087,6.99257 -2.09393,14.04877 -1.92098,21.12181 0,0 -9.33494,4.75639 -9.33494,4.75639 z" />
          <path
             style="fill:#1a1a1a;fill-opacity:1;stroke:none"
             id="path12345"
             d="m 352.44072,380.54992 c 0.59399,-6.68137 2.5168,-13.13564 4.67969,-19.45248 1.3312,-3.27152 0.67175,-1.71898 1.96621,-4.66278 0,0 9.28999,-4.24088 9.28999,-4.24088 v 0 c -1.40487,2.94357 -0.68848,1.39648 -2.13886,4.64604 -2.2747,6.09811 -4.29942,12.4117 -4.50063,18.97334 0,0 -9.2964,4.73676 -9.2964,4.73676 z" />
        </g>
        <g
           id="g12347"
           transform="matrix(0.30792014,0,0,0.30792014,801.94576,124.26216)"
           style="opacity:0.07722006;fill:#1a1a1a;filter:url(#filter11000)">
          <path
             d="m 332.56183,385.2017 c -0.1312,-2.03289 -0.37006,-4.04029 -0.83316,-6.02414 -0.42758,-1.78142 -0.4251,-3.58367 -0.13839,-5.38234 0,0 9.41781,-4.55183 9.41781,-4.55183 v 0 c -0.45185,1.64241 -0.41477,3.31754 -0.0524,4.97924 0.41519,2.02117 0.67301,4.04992 0.89321,6.10069 0,0 -9.28704,4.87838 -9.28704,4.87838 z"
             id="path12349"
             style="fill:#1a1a1a;fill-opacity:1;stroke:none" />
          <path
             d="m 343.22907,383.64191 c 0.35061,-7.2166 1.47709,-14.37355 2.4306,-21.52923 0.51072,-3.60541 1.03833,-7.20656 1.64049,-10.79772 0,0 9.07061,-4.41306 9.07061,-4.41306 v 0 c -0.73856,3.60225 -1.35392,7.22249 -1.88578,10.86181 -0.95087,6.99257 -2.09393,14.04877 -1.92098,21.12181 0,0 -9.33494,4.75639 -9.33494,4.75639 z"
             id="path12351"
             style="fill:#1a1a1a;fill-opacity:1;stroke:none" />
          <path
             d="m 352.44072,380.54992 c 0.59399,-6.68137 2.5168,-13.13564 4.67969,-19.45248 1.3312,-3.27152 0.67175,-1.71898 1.96621,-4.66278 0,0 9.28999,-4.24088 9.28999,-4.24088 v 0 c -1.40487,2.94357 -0.68848,1.39648 -2.13886,4.64604 -2.2747,6.09811 -4.29942,12.4117 -4.50063,18.97334 0,0 -9.2964,4.73676 -9.2964,4.73676 z"
             id="path12353"
             style="fill:#1a1a1a;fill-opacity:1;stroke:none" />
        </g>
        <g
           style="opacity:0.07722006;fill:#1a1a1a;filter:url(#filter11000)"
           transform="matrix(0.30792014,0,0,0.30792014,842.94576,120.26216)"
           id="g12355">
          <path
             style="fill:#1a1a1a;fill-opacity:1;stroke:none"
             id="path12357"
             d="m 332.56183,385.2017 c -0.1312,-2.03289 -0.37006,-4.04029 -0.83316,-6.02414 -0.42758,-1.78142 -0.4251,-3.58367 -0.13839,-5.38234 0,0 9.41781,-4.55183 9.41781,-4.55183 v 0 c -0.45185,1.64241 -0.41477,3.31754 -0.0524,4.97924 0.41519,2.02117 0.67301,4.04992 0.89321,6.10069 0,0 -9.28704,4.87838 -9.28704,4.87838 z" />
          <path
             style="fill:#1a1a1a;fill-opacity:1;stroke:none"
             id="path12359"
             d="m 343.22907,383.64191 c 0.35061,-7.2166 1.47709,-14.37355 2.4306,-21.52923 0.51072,-3.60541 1.03833,-7.20656 1.64049,-10.79772 0,0 9.07061,-4.41306 9.07061,-4.41306 v 0 c -0.73856,3.60225 -1.35392,7.22249 -1.88578,10.86181 -0.95087,6.99257 -2.09393,14.04877 -1.92098,21.12181 0,0 -9.33494,4.75639 -9.33494,4.75639 z" />
          <path
             style="fill:#1a1a1a;fill-opacity:1;stroke:none"
             id="path12361"
             d="m 352.44072,380.54992 c 0.59399,-6.68137 2.5168,-13.13564 4.67969,-19.45248 1.3312,-3.27152 0.67175,-1.71898 1.96621,-4.66278 0,0 9.28999,-4.24088 9.28999,-4.24088 v 0 c -1.40487,2.94357 -0.68848,1.39648 -2.13886,4.64604 -2.2747,6.09811 -4.29942,12.4117 -4.50063,18.97334 0,0 -9.2964,4.73676 -9.2964,4.73676 z" />
        </g>
        <g
           id="g12363"
           transform="matrix(0.30792014,0,0,0.30792014,831.94576,143.26216)"
           style="opacity:0.07722006;fill:#1a1a1a;filter:url(#filter11000)">
          <path
             d="m 332.56183,385.2017 c -0.1312,-2.03289 -0.37006,-4.04029 -0.83316,-6.02414 -0.42758,-1.78142 -0.4251,-3.58367 -0.13839,-5.38234 0,0 9.41781,-4.55183 9.41781,-4.55183 v 0 c -0.45185,1.64241 -0.41477,3.31754 -0.0524,4.97924 0.41519,2.02117 0.67301,4.04992 0.89321,6.10069 0,0 -9.28704,4.87838 -9.28704,4.87838 z"
             id="path12365"
             style="fill:#1a1a1a;fill-opacity:1;stroke:none" />
          <path
             d="m 343.22907,383.64191 c 0.35061,-7.2166 1.47709,-14.37355 2.4306,-21.52923 0.51072,-3.60541 1.03833,-7.20656 1.64049,-10.79772 0,0 9.07061,-4.41306 9.07061,-4.41306 v 0 c -0.73856,3.60225 -1.35392,7.22249 -1.88578,10.86181 -0.95087,6.99257 -2.09393,14.04877 -1.92098,21.12181 0,0 -9.33494,4.75639 -9.33494,4.75639 z"
             id="path12367"
             style="fill:#1a1a1a;fill-opacity:1;stroke:none" />
          <path
             d="m 352.44072,380.54992 c 0.59399,-6.68137 2.5168,-13.13564 4.67969,-19.45248 1.3312,-3.27152 0.67175,-1.71898 1.96621,-4.66278 0,0 9.28999,-4.24088 9.28999,-4.24088 v 0 c -1.40487,2.94357 -0.68848,1.39648 -2.13886,4.64604 -2.2747,6.09811 -4.29942,12.4117 -4.50063,18.97334 0,0 -9.2964,4.73676 -9.2964,4.73676 z"
             id="path12369"
             style="fill:#1a1a1a;fill-opacity:1;stroke:none" />
        </g>
        <g
           style="opacity:0.07722006;fill:#1a1a1a;filter:url(#filter11000)"
           transform="matrix(0.30792014,0,0,0.30792014,822.94576,121.26216)"
           id="g12371">
          <path
             style="fill:#1a1a1a;fill-opacity:1;stroke:none"
             id="path12373"
             d="m 332.56183,385.2017 c -0.1312,-2.03289 -0.37006,-4.04029 -0.83316,-6.02414 -0.42758,-1.78142 -0.4251,-3.58367 -0.13839,-5.38234 0,0 9.41781,-4.55183 9.41781,-4.55183 v 0 c -0.45185,1.64241 -0.41477,3.31754 -0.0524,4.97924 0.41519,2.02117 0.67301,4.04992 0.89321,6.10069 0,0 -9.28704,4.87838 -9.28704,4.87838 z" />
          <path
             style="fill:#1a1a1a;fill-opacity:1;stroke:none"
             id="path12375"
             d="m 343.22907,383.64191 c 0.35061,-7.2166 1.47709,-14.37355 2.4306,-21.52923 0.51072,-3.60541 1.03833,-7.20656 1.64049,-10.79772 0,0 9.07061,-4.41306 9.07061,-4.41306 v 0 c -0.73856,3.60225 -1.35392,7.22249 -1.88578,10.86181 -0.95087,6.99257 -2.09393,14.04877 -1.92098,21.12181 0,0 -9.33494,4.75639 -9.33494,4.75639 z" />
          <path
             style="fill:#1a1a1a;fill-opacity:1;stroke:none"
             id="path12377"
             d="m 352.44072,380.54992 c 0.59399,-6.68137 2.5168,-13.13564 4.67969,-19.45248 1.3312,-3.27152 0.67175,-1.71898 1.96621,-4.66278 0,0 9.28999,-4.24088 9.28999,-4.24088 v 0 c -1.40487,2.94357 -0.68848,1.39648 -2.13886,4.64604 -2.2747,6.09811 -4.29942,12.4117 -4.50063,18.97334 0,0 -9.2964,4.73676 -9.2964,4.73676 z" />
        </g>
        <g
           id="g12379"
           transform="matrix(0.30792014,0,0,0.30792014,792.94576,144.26216)"
           style="opacity:0.07722006;fill:#1a1a1a;filter:url(#filter11000)">
          <path
             d="m 332.56183,385.2017 c -0.1312,-2.03289 -0.37006,-4.04029 -0.83316,-6.02414 -0.42758,-1.78142 -0.4251,-3.58367 -0.13839,-5.38234 0,0 9.41781,-4.55183 9.41781,-4.55183 v 0 c -0.45185,1.64241 -0.41477,3.31754 -0.0524,4.97924 0.41519,2.02117 0.67301,4.04992 0.89321,6.10069 0,0 -9.28704,4.87838 -9.28704,4.87838 z"
             id="path12381"
             style="fill:#1a1a1a;fill-opacity:1;stroke:none" />
          <path
             d="m 343.22907,383.64191 c 0.35061,-7.2166 1.47709,-14.37355 2.4306,-21.52923 0.51072,-3.60541 1.03833,-7.20656 1.64049,-10.79772 0,0 9.07061,-4.41306 9.07061,-4.41306 v 0 c -0.73856,3.60225 -1.35392,7.22249 -1.88578,10.86181 -0.95087,6.99257 -2.09393,14.04877 -1.92098,21.12181 0,0 -9.33494,4.75639 -9.33494,4.75639 z"
             id="path12383"
             style="fill:#1a1a1a;fill-opacity:1;stroke:none" />
          <path
             d="m 352.44072,380.54992 c 0.59399,-6.68137 2.5168,-13.13564 4.67969,-19.45248 1.3312,-3.27152 0.67175,-1.71898 1.96621,-4.66278 0,0 9.28999,-4.24088 9.28999,-4.24088 v 0 c -1.40487,2.94357 -0.68848,1.39648 -2.13886,4.64604 -2.2747,6.09811 -4.29942,12.4117 -4.50063,18.97334 0,0 -9.2964,4.73676 -9.2964,4.73676 z"
             id="path12385"
             style="fill:#1a1a1a;fill-opacity:1;stroke:none" />
        </g>
        <g
           style="opacity:0.07722006;fill:#1a1a1a;filter:url(#filter11000)"
           transform="matrix(0.30792014,0,0,0.30792014,806.94576,149.26216)"
           id="g12387">
          <path
             style="fill:#1a1a1a;fill-opacity:1;stroke:none"
             id="path12389"
             d="m 332.56183,385.2017 c -0.1312,-2.03289 -0.37006,-4.04029 -0.83316,-6.02414 -0.42758,-1.78142 -0.4251,-3.58367 -0.13839,-5.38234 0,0 9.41781,-4.55183 9.41781,-4.55183 v 0 c -0.45185,1.64241 -0.41477,3.31754 -0.0524,4.97924 0.41519,2.02117 0.67301,4.04992 0.89321,6.10069 0,0 -9.28704,4.87838 -9.28704,4.87838 z" />
          <path
             style="fill:#1a1a1a;fill-opacity:1;stroke:none"
             id="path12391"
             d="m 343.22907,383.64191 c 0.35061,-7.2166 1.47709,-14.37355 2.4306,-21.52923 0.51072,-3.60541 1.03833,-7.20656 1.64049,-10.79772 0,0 9.07061,-4.41306 9.07061,-4.41306 v 0 c -0.73856,3.60225 -1.35392,7.22249 -1.88578,10.86181 -0.95087,6.99257 -2.09393,14.04877 -1.92098,21.12181 0,0 -9.33494,4.75639 -9.33494,4.75639 z" />
          <path
             style="fill:#1a1a1a;fill-opacity:1;stroke:none"
             id="path12393"
             d="m 352.44072,380.54992 c 0.59399,-6.68137 2.5168,-13.13564 4.67969,-19.45248 1.3312,-3.27152 0.67175,-1.71898 1.96621,-4.66278 0,0 9.28999,-4.24088 9.28999,-4.24088 v 0 c -1.40487,2.94357 -0.68848,1.39648 -2.13886,4.64604 -2.2747,6.09811 -4.29942,12.4117 -4.50063,18.97334 0,0 -9.2964,4.73676 -9.2964,4.73676 z" />
        </g>
      </g>
      <g
         id="g12685"
         transform="matrix(-1,0,0,1,1090.345,70.828427)"
         style="fill:#1a1a1a">
        <g
           style="opacity:0.07722006;fill:#1a1a1a;filter:url(#filter11000)"
           transform="matrix(0.30792014,0,0,0.30792014,783.94576,115.26216)"
           id="g12687">
          <path
             style="fill:#1a1a1a;fill-opacity:1;stroke:none"
             id="path12689"
             d="m 332.56183,385.2017 c -0.1312,-2.03289 -0.37006,-4.04029 -0.83316,-6.02414 -0.42758,-1.78142 -0.4251,-3.58367 -0.13839,-5.38234 0,0 9.41781,-4.55183 9.41781,-4.55183 v 0 c -0.45185,1.64241 -0.41477,3.31754 -0.0524,4.97924 0.41519,2.02117 0.67301,4.04992 0.89321,6.10069 0,0 -9.28704,4.87838 -9.28704,4.87838 z" />
          <path
             style="fill:#1a1a1a;fill-opacity:1;stroke:none"
             id="path12691"
             d="m 343.22907,383.64191 c 0.35061,-7.2166 1.47709,-14.37355 2.4306,-21.52923 0.51072,-3.60541 1.03833,-7.20656 1.64049,-10.79772 0,0 9.07061,-4.41306 9.07061,-4.41306 v 0 c -0.73856,3.60225 -1.35392,7.22249 -1.88578,10.86181 -0.95087,6.99257 -2.09393,14.04877 -1.92098,21.12181 0,0 -9.33494,4.75639 -9.33494,4.75639 z" />
          <path
             style="fill:#1a1a1a;fill-opacity:1;stroke:none"
             id="path12693"
             d="m 352.44072,380.54992 c 0.59399,-6.68137 2.5168,-13.13564 4.67969,-19.45248 1.3312,-3.27152 0.67175,-1.71898 1.96621,-4.66278 0,0 9.28999,-4.24088 9.28999,-4.24088 v 0 c -1.40487,2.94357 -0.68848,1.39648 -2.13886,4.64604 -2.2747,6.09811 -4.29942,12.4117 -4.50063,18.97334 0,0 -9.2964,4.73676 -9.2964,4.73676 z" />
        </g>
        <g
           id="g12695"
           transform="matrix(0.30792014,0,0,0.30792014,801.94576,124.26216)"
           style="opacity:0.07722006;fill:#1a1a1a;filter:url(#filter11000)">
          <path
             d="m 332.56183,385.2017 c -0.1312,-2.03289 -0.37006,-4.04029 -0.83316,-6.02414 -0.42758,-1.78142 -0.4251,-3.58367 -0.13839,-5.38234 0,0 9.41781,-4.55183 9.41781,-4.55183 v 0 c -0.45185,1.64241 -0.41477,3.31754 -0.0524,4.97924 0.41519,2.02117 0.67301,4.04992 0.89321,6.10069 0,0 -9.28704,4.87838 -9.28704,4.87838 z"
             id="path12697"
             style="fill:#1a1a1a;fill-opacity:1;stroke:none" />
          <path
             d="m 343.22907,383.64191 c 0.35061,-7.2166 1.47709,-14.37355 2.4306,-21.52923 0.51072,-3.60541 1.03833,-7.20656 1.64049,-10.79772 0,0 9.07061,-4.41306 9.07061,-4.41306 v 0 c -0.73856,3.60225 -1.35392,7.22249 -1.88578,10.86181 -0.95087,6.99257 -2.09393,14.04877 -1.92098,21.12181 0,0 -9.33494,4.75639 -9.33494,4.75639 z"
             id="path12699"
             style="fill:#1a1a1a;fill-opacity:1;stroke:none" />
          <path
             d="m 352.44072,380.54992 c 0.59399,-6.68137 2.5168,-13.13564 4.67969,-19.45248 1.3312,-3.27152 0.67175,-1.71898 1.96621,-4.66278 0,0 9.28999,-4.24088 9.28999,-4.24088 v 0 c -1.40487,2.94357 -0.68848,1.39648 -2.13886,4.64604 -2.2747,6.09811 -4.29942,12.4117 -4.50063,18.97334 0,0 -9.2964,4.73676 -9.2964,4.73676 z"
             id="path12701"
             style="fill:#1a1a1a;fill-opacity:1;stroke:none" />
        </g>
        <g
           style="opacity:0.07722006;fill:#1a1a1a;filter:url(#filter11000)"
           transform="matrix(0.30792014,0,0,0.30792014,842.94576,120.26216)"
           id="g12703">
          <path
             style="fill:#1a1a1a;fill-opacity:1;stroke:none"
             id="path12705"
             d="m 332.56183,385.2017 c -0.1312,-2.03289 -0.37006,-4.04029 -0.83316,-6.02414 -0.42758,-1.78142 -0.4251,-3.58367 -0.13839,-5.38234 0,0 9.41781,-4.55183 9.41781,-4.55183 v 0 c -0.45185,1.64241 -0.41477,3.31754 -0.0524,4.97924 0.41519,2.02117 0.67301,4.04992 0.89321,6.10069 0,0 -9.28704,4.87838 -9.28704,4.87838 z" />
          <path
             style="fill:#1a1a1a;fill-opacity:1;stroke:none"
             id="path12707"
             d="m 343.22907,383.64191 c 0.35061,-7.2166 1.47709,-14.37355 2.4306,-21.52923 0.51072,-3.60541 1.03833,-7.20656 1.64049,-10.79772 0,0 9.07061,-4.41306 9.07061,-4.41306 v 0 c -0.73856,3.60225 -1.35392,7.22249 -1.88578,10.86181 -0.95087,6.99257 -2.09393,14.04877 -1.92098,21.12181 0,0 -9.33494,4.75639 -9.33494,4.75639 z" />
          <path
             style="fill:#1a1a1a;fill-opacity:1;stroke:none"
             id="path12709"
             d="m 352.44072,380.54992 c 0.59399,-6.68137 2.5168,-13.13564 4.67969,-19.45248 1.3312,-3.27152 0.67175,-1.71898 1.96621,-4.66278 0,0 9.28999,-4.24088 9.28999,-4.24088 v 0 c -1.40487,2.94357 -0.68848,1.39648 -2.13886,4.64604 -2.2747,6.09811 -4.29942,12.4117 -4.50063,18.97334 0,0 -9.2964,4.73676 -9.2964,4.73676 z" />
        </g>
        <g
           id="g12711"
           transform="matrix(0.30792014,0,0,0.30792014,831.94576,143.26216)"
           style="opacity:0.07722006;fill:#1a1a1a;filter:url(#filter11000)">
          <path
             d="m 332.56183,385.2017 c -0.1312,-2.03289 -0.37006,-4.04029 -0.83316,-6.02414 -0.42758,-1.78142 -0.4251,-3.58367 -0.13839,-5.38234 0,0 9.41781,-4.55183 9.41781,-4.55183 v 0 c -0.45185,1.64241 -0.41477,3.31754 -0.0524,4.97924 0.41519,2.02117 0.67301,4.04992 0.89321,6.10069 0,0 -9.28704,4.87838 -9.28704,4.87838 z"
             id="path12713"
             style="fill:#1a1a1a;fill-opacity:1;stroke:none" />
          <path
             d="m 343.22907,383.64191 c 0.35061,-7.2166 1.47709,-14.37355 2.4306,-21.52923 0.51072,-3.60541 1.03833,-7.20656 1.64049,-10.79772 0,0 9.07061,-4.41306 9.07061,-4.41306 v 0 c -0.73856,3.60225 -1.35392,7.22249 -1.88578,10.86181 -0.95087,6.99257 -2.09393,14.04877 -1.92098,21.12181 0,0 -9.33494,4.75639 -9.33494,4.75639 z"
             id="path12715"
             style="fill:#1a1a1a;fill-opacity:1;stroke:none" />
          <path
             d="m 352.44072,380.54992 c 0.59399,-6.68137 2.5168,-13.13564 4.67969,-19.45248 1.3312,-3.27152 0.67175,-1.71898 1.96621,-4.66278 0,0 9.28999,-4.24088 9.28999,-4.24088 v 0 c -1.40487,2.94357 -0.68848,1.39648 -2.13886,4.64604 -2.2747,6.09811 -4.29942,12.4117 -4.50063,18.97334 0,0 -9.2964,4.73676 -9.2964,4.73676 z"
             id="path12717"
             style="fill:#1a1a1a;fill-opacity:1;stroke:none" />
        </g>
        <g
           style="opacity:0.07722006;fill:#1a1a1a;filter:url(#filter11000)"
           transform="matrix(0.30792014,0,0,0.30792014,822.94576,121.26216)"
           id="g12719">
          <path
             style="fill:#1a1a1a;fill-opacity:1;stroke:none"
             id="path12721"
             d="m 332.56183,385.2017 c -0.1312,-2.03289 -0.37006,-4.04029 -0.83316,-6.02414 -0.42758,-1.78142 -0.4251,-3.58367 -0.13839,-5.38234 0,0 9.41781,-4.55183 9.41781,-4.55183 v 0 c -0.45185,1.64241 -0.41477,3.31754 -0.0524,4.97924 0.41519,2.02117 0.67301,4.04992 0.89321,6.10069 0,0 -9.28704,4.87838 -9.28704,4.87838 z" />
          <path
             style="fill:#1a1a1a;fill-opacity:1;stroke:none"
             id="path12723"
             d="m 343.22907,383.64191 c 0.35061,-7.2166 1.47709,-14.37355 2.4306,-21.52923 0.51072,-3.60541 1.03833,-7.20656 1.64049,-10.79772 0,0 9.07061,-4.41306 9.07061,-4.41306 v 0 c -0.73856,3.60225 -1.35392,7.22249 -1.88578,10.86181 -0.95087,6.99257 -2.09393,14.04877 -1.92098,21.12181 0,0 -9.33494,4.75639 -9.33494,4.75639 z" />
          <path
             style="fill:#1a1a1a;fill-opacity:1;stroke:none"
             id="path12725"
             d="m 352.44072,380.54992 c 0.59399,-6.68137 2.5168,-13.13564 4.67969,-19.45248 1.3312,-3.27152 0.67175,-1.71898 1.96621,-4.66278 0,0 9.28999,-4.24088 9.28999,-4.24088 v 0 c -1.40487,2.94357 -0.68848,1.39648 -2.13886,4.64604 -2.2747,6.09811 -4.29942,12.4117 -4.50063,18.97334 0,0 -9.2964,4.73676 -9.2964,4.73676 z" />
        </g>
        <g
           id="g12727"
           transform="matrix(0.30792014,0,0,0.30792014,792.94576,144.26216)"
           style="opacity:0.07722006;fill:#1a1a1a;filter:url(#filter11000)">
          <path
             d="m 332.56183,385.2017 c -0.1312,-2.03289 -0.37006,-4.04029 -0.83316,-6.02414 -0.42758,-1.78142 -0.4251,-3.58367 -0.13839,-5.38234 0,0 9.41781,-4.55183 9.41781,-4.55183 v 0 c -0.45185,1.64241 -0.41477,3.31754 -0.0524,4.97924 0.41519,2.02117 0.67301,4.04992 0.89321,6.10069 0,0 -9.28704,4.87838 -9.28704,4.87838 z"
             id="path12729"
             style="fill:#1a1a1a;fill-opacity:1;stroke:none" />
          <path
             d="m 343.22907,383.64191 c 0.35061,-7.2166 1.47709,-14.37355 2.4306,-21.52923 0.51072,-3.60541 1.03833,-7.20656 1.64049,-10.79772 0,0 9.07061,-4.41306 9.07061,-4.41306 v 0 c -0.73856,3.60225 -1.35392,7.22249 -1.88578,10.86181 -0.95087,6.99257 -2.09393,14.04877 -1.92098,21.12181 0,0 -9.33494,4.75639 -9.33494,4.75639 z"
             id="path12731"
             style="fill:#1a1a1a;fill-opacity:1;stroke:none" />
          <path
             d="m 352.44072,380.54992 c 0.59399,-6.68137 2.5168,-13.13564 4.67969,-19.45248 1.3312,-3.27152 0.67175,-1.71898 1.96621,-4.66278 0,0 9.28999,-4.24088 9.28999,-4.24088 v 0 c -1.40487,2.94357 -0.68848,1.39648 -2.13886,4.64604 -2.2747,6.09811 -4.29942,12.4117 -4.50063,18.97334 0,0 -9.2964,4.73676 -9.2964,4.73676 z"
             id="path12733"
             style="fill:#1a1a1a;fill-opacity:1;stroke:none" />
        </g>
        <g
           style="opacity:0.07722006;fill:#1a1a1a;filter:url(#filter11000)"
           transform="matrix(0.30792014,0,0,0.30792014,806.94576,149.26216)"
           id="g12735">
          <path
             style="fill:#1a1a1a;fill-opacity:1;stroke:none"
             id="path12737"
             d="m 332.56183,385.2017 c -0.1312,-2.03289 -0.37006,-4.04029 -0.83316,-6.02414 -0.42758,-1.78142 -0.4251,-3.58367 -0.13839,-5.38234 0,0 9.41781,-4.55183 9.41781,-4.55183 v 0 c -0.45185,1.64241 -0.41477,3.31754 -0.0524,4.97924 0.41519,2.02117 0.67301,4.04992 0.89321,6.10069 0,0 -9.28704,4.87838 -9.28704,4.87838 z" />
          <path
             style="fill:#1a1a1a;fill-opacity:1;stroke:none"
             id="path12739"
             d="m 343.22907,383.64191 c 0.35061,-7.2166 1.47709,-14.37355 2.4306,-21.52923 0.51072,-3.60541 1.03833,-7.20656 1.64049,-10.79772 0,0 9.07061,-4.41306 9.07061,-4.41306 v 0 c -0.73856,3.60225 -1.35392,7.22249 -1.88578,10.86181 -0.95087,6.99257 -2.09393,14.04877 -1.92098,21.12181 0,0 -9.33494,4.75639 -9.33494,4.75639 z" />
          <path
             style="fill:#1a1a1a;fill-opacity:1;stroke:none"
             id="path12741"
             d="m 352.44072,380.54992 c 0.59399,-6.68137 2.5168,-13.13564 4.67969,-19.45248 1.3312,-3.27152 0.67175,-1.71898 1.96621,-4.66278 0,0 9.28999,-4.24088 9.28999,-4.24088 v 0 c -1.40487,2.94357 -0.68848,1.39648 -2.13886,4.64604 -2.2747,6.09811 -4.29942,12.4117 -4.50063,18.97334 0,0 -9.2964,4.73676 -9.2964,4.73676 z" />
        </g>
      </g>
      <g
         style="fill:#1a1a1a;filter:url(#filter13143)"
         transform="translate(-473.67114,324.61227)"
         id="g12745">
        <g
           id="g12747"
           transform="matrix(0.30792014,0,0,0.30792014,783.94576,115.26216)"
           style="opacity:0.07722006;fill:#1a1a1a;filter:url(#filter11000)">
          <path
             d="m 332.56183,385.2017 c -0.1312,-2.03289 -0.37006,-4.04029 -0.83316,-6.02414 -0.42758,-1.78142 -0.4251,-3.58367 -0.13839,-5.38234 0,0 9.41781,-4.55183 9.41781,-4.55183 v 0 c -0.45185,1.64241 -0.41477,3.31754 -0.0524,4.97924 0.41519,2.02117 0.67301,4.04992 0.89321,6.10069 0,0 -9.28704,4.87838 -9.28704,4.87838 z"
             id="path12749"
             style="fill:#1a1a1a;fill-opacity:1;stroke:none" />
          <path
             d="m 343.22907,383.64191 c 0.35061,-7.2166 1.47709,-14.37355 2.4306,-21.52923 0.51072,-3.60541 1.03833,-7.20656 1.64049,-10.79772 0,0 9.07061,-4.41306 9.07061,-4.41306 v 0 c -0.73856,3.60225 -1.35392,7.22249 -1.88578,10.86181 -0.95087,6.99257 -2.09393,14.04877 -1.92098,21.12181 0,0 -9.33494,4.75639 -9.33494,4.75639 z"
             id="path12751"
             style="fill:#1a1a1a;fill-opacity:1;stroke:none" />
          <path
             d="m 352.44072,380.54992 c 0.59399,-6.68137 2.5168,-13.13564 4.67969,-19.45248 1.3312,-3.27152 0.67175,-1.71898 1.96621,-4.66278 0,0 9.28999,-4.24088 9.28999,-4.24088 v 0 c -1.40487,2.94357 -0.68848,1.39648 -2.13886,4.64604 -2.2747,6.09811 -4.29942,12.4117 -4.50063,18.97334 0,0 -9.2964,4.73676 -9.2964,4.73676 z"
             id="path12753"
             style="fill:#1a1a1a;fill-opacity:1;stroke:none" />
        </g>
        <g
           style="opacity:0.07722006;fill:#1a1a1a;filter:url(#filter11000)"
           transform="matrix(0.30792014,0,0,0.30792014,801.94576,124.26216)"
           id="g12755">
          <path
             style="fill:#1a1a1a;fill-opacity:1;stroke:none"
             id="path12757"
             d="m 332.56183,385.2017 c -0.1312,-2.03289 -0.37006,-4.04029 -0.83316,-6.02414 -0.42758,-1.78142 -0.4251,-3.58367 -0.13839,-5.38234 0,0 9.41781,-4.55183 9.41781,-4.55183 v 0 c -0.45185,1.64241 -0.41477,3.31754 -0.0524,4.97924 0.41519,2.02117 0.67301,4.04992 0.89321,6.10069 0,0 -9.28704,4.87838 -9.28704,4.87838 z" />
          <path
             style="fill:#1a1a1a;fill-opacity:1;stroke:none"
             id="path12759"
             d="m 343.22907,383.64191 c 0.35061,-7.2166 1.47709,-14.37355 2.4306,-21.52923 0.51072,-3.60541 1.03833,-7.20656 1.64049,-10.79772 0,0 9.07061,-4.41306 9.07061,-4.41306 v 0 c -0.73856,3.60225 -1.35392,7.22249 -1.88578,10.86181 -0.95087,6.99257 -2.09393,14.04877 -1.92098,21.12181 0,0 -9.33494,4.75639 -9.33494,4.75639 z" />
          <path
             style="fill:#1a1a1a;fill-opacity:1;stroke:none"
             id="path12761"
             d="m 352.44072,380.54992 c 0.59399,-6.68137 2.5168,-13.13564 4.67969,-19.45248 1.3312,-3.27152 0.67175,-1.71898 1.96621,-4.66278 0,0 9.28999,-4.24088 9.28999,-4.24088 v 0 c -1.40487,2.94357 -0.68848,1.39648 -2.13886,4.64604 -2.2747,6.09811 -4.29942,12.4117 -4.50063,18.97334 0,0 -9.2964,4.73676 -9.2964,4.73676 z" />
        </g>
        <g
           id="g12763"
           transform="matrix(0.30792014,0,0,0.30792014,842.94576,120.26216)"
           style="opacity:0.07722006;fill:#1a1a1a;filter:url(#filter11000)">
          <path
             d="m 332.56183,385.2017 c -0.1312,-2.03289 -0.37006,-4.04029 -0.83316,-6.02414 -0.42758,-1.78142 -0.4251,-3.58367 -0.13839,-5.38234 0,0 9.41781,-4.55183 9.41781,-4.55183 v 0 c -0.45185,1.64241 -0.41477,3.31754 -0.0524,4.97924 0.41519,2.02117 0.67301,4.04992 0.89321,6.10069 0,0 -9.28704,4.87838 -9.28704,4.87838 z"
             id="path12765"
             style="fill:#1a1a1a;fill-opacity:1;stroke:none" />
          <path
             d="m 343.22907,383.64191 c 0.35061,-7.2166 1.47709,-14.37355 2.4306,-21.52923 0.51072,-3.60541 1.03833,-7.20656 1.64049,-10.79772 0,0 9.07061,-4.41306 9.07061,-4.41306 v 0 c -0.73856,3.60225 -1.35392,7.22249 -1.88578,10.86181 -0.95087,6.99257 -2.09393,14.04877 -1.92098,21.12181 0,0 -9.33494,4.75639 -9.33494,4.75639 z"
             id="path12767"
             style="fill:#1a1a1a;fill-opacity:1;stroke:none" />
          <path
             d="m 352.44072,380.54992 c 0.59399,-6.68137 2.5168,-13.13564 4.67969,-19.45248 1.3312,-3.27152 0.67175,-1.71898 1.96621,-4.66278 0,0 9.28999,-4.24088 9.28999,-4.24088 v 0 c -1.40487,2.94357 -0.68848,1.39648 -2.13886,4.64604 -2.2747,6.09811 -4.29942,12.4117 -4.50063,18.97334 0,0 -9.2964,4.73676 -9.2964,4.73676 z"
             id="path12769"
             style="fill:#1a1a1a;fill-opacity:1;stroke:none" />
        </g>
        <g
           style="opacity:0.07722006;fill:#1a1a1a;filter:url(#filter11000)"
           transform="matrix(0.30792014,0,0,0.30792014,831.94576,143.26216)"
           id="g12771">
          <path
             style="fill:#1a1a1a;fill-opacity:1;stroke:none"
             id="path12773"
             d="m 332.56183,385.2017 c -0.1312,-2.03289 -0.37006,-4.04029 -0.83316,-6.02414 -0.42758,-1.78142 -0.4251,-3.58367 -0.13839,-5.38234 0,0 9.41781,-4.55183 9.41781,-4.55183 v 0 c -0.45185,1.64241 -0.41477,3.31754 -0.0524,4.97924 0.41519,2.02117 0.67301,4.04992 0.89321,6.10069 0,0 -9.28704,4.87838 -9.28704,4.87838 z" />
          <path
             style="fill:#1a1a1a;fill-opacity:1;stroke:none"
             id="path12775"
             d="m 343.22907,383.64191 c 0.35061,-7.2166 1.47709,-14.37355 2.4306,-21.52923 0.51072,-3.60541 1.03833,-7.20656 1.64049,-10.79772 0,0 9.07061,-4.41306 9.07061,-4.41306 v 0 c -0.73856,3.60225 -1.35392,7.22249 -1.88578,10.86181 -0.95087,6.99257 -2.09393,14.04877 -1.92098,21.12181 0,0 -9.33494,4.75639 -9.33494,4.75639 z" />
          <path
             style="fill:#1a1a1a;fill-opacity:1;stroke:none"
             id="path12777"
             d="m 352.44072,380.54992 c 0.59399,-6.68137 2.5168,-13.13564 4.67969,-19.45248 1.3312,-3.27152 0.67175,-1.71898 1.96621,-4.66278 0,0 9.28999,-4.24088 9.28999,-4.24088 v 0 c -1.40487,2.94357 -0.68848,1.39648 -2.13886,4.64604 -2.2747,6.09811 -4.29942,12.4117 -4.50063,18.97334 0,0 -9.2964,4.73676 -9.2964,4.73676 z" />
        </g>
        <g
           id="g12779"
           transform="matrix(0.30792014,0,0,0.30792014,822.94576,121.26216)"
           style="opacity:0.07722006;fill:#1a1a1a;filter:url(#filter11000)">
          <path
             d="m 332.56183,385.2017 c -0.1312,-2.03289 -0.37006,-4.04029 -0.83316,-6.02414 -0.42758,-1.78142 -0.4251,-3.58367 -0.13839,-5.38234 0,0 9.41781,-4.55183 9.41781,-4.55183 v 0 c -0.45185,1.64241 -0.41477,3.31754 -0.0524,4.97924 0.41519,2.02117 0.67301,4.04992 0.89321,6.10069 0,0 -9.28704,4.87838 -9.28704,4.87838 z"
             id="path12781"
             style="fill:#1a1a1a;fill-opacity:1;stroke:none" />
          <path
             d="m 343.22907,383.64191 c 0.35061,-7.2166 1.47709,-14.37355 2.4306,-21.52923 0.51072,-3.60541 1.03833,-7.20656 1.64049,-10.79772 0,0 9.07061,-4.41306 9.07061,-4.41306 v 0 c -0.73856,3.60225 -1.35392,7.22249 -1.88578,10.86181 -0.95087,6.99257 -2.09393,14.04877 -1.92098,21.12181 0,0 -9.33494,4.75639 -9.33494,4.75639 z"
             id="path12783"
             style="fill:#1a1a1a;fill-opacity:1;stroke:none" />
          <path
             d="m 352.44072,380.54992 c 0.59399,-6.68137 2.5168,-13.13564 4.67969,-19.45248 1.3312,-3.27152 0.67175,-1.71898 1.96621,-4.66278 0,0 9.28999,-4.24088 9.28999,-4.24088 v 0 c -1.40487,2.94357 -0.68848,1.39648 -2.13886,4.64604 -2.2747,6.09811 -4.29942,12.4117 -4.50063,18.97334 0,0 -9.2964,4.73676 -9.2964,4.73676 z"
             id="path12785"
             style="fill:#1a1a1a;fill-opacity:1;stroke:none" />
        </g>
        <g
           style="opacity:0.07722006;fill:#1a1a1a;filter:url(#filter11000)"
           transform="matrix(0.30792014,0,0,0.30792014,792.94576,144.26216)"
           id="g12787">
          <path
             style="fill:#1a1a1a;fill-opacity:1;stroke:none"
             id="path12800"
             d="m 332.56183,385.2017 c -0.1312,-2.03289 -0.37006,-4.04029 -0.83316,-6.02414 -0.42758,-1.78142 -0.4251,-3.58367 -0.13839,-5.38234 0,0 9.41781,-4.55183 9.41781,-4.55183 v 0 c -0.45185,1.64241 -0.41477,3.31754 -0.0524,4.97924 0.41519,2.02117 0.67301,4.04992 0.89321,6.10069 0,0 -9.28704,4.87838 -9.28704,4.87838 z" />
          <path
             style="fill:#1a1a1a;fill-opacity:1;stroke:none"
             id="path12802"
             d="m 343.22907,383.64191 c 0.35061,-7.2166 1.47709,-14.37355 2.4306,-21.52923 0.51072,-3.60541 1.03833,-7.20656 1.64049,-10.79772 0,0 9.07061,-4.41306 9.07061,-4.41306 v 0 c -0.73856,3.60225 -1.35392,7.22249 -1.88578,10.86181 -0.95087,6.99257 -2.09393,14.04877 -1.92098,21.12181 0,0 -9.33494,4.75639 -9.33494,4.75639 z" />
          <path
             style="fill:#1a1a1a;fill-opacity:1;stroke:none"
             id="path12830"
             d="m 352.44072,380.54992 c 0.59399,-6.68137 2.5168,-13.13564 4.67969,-19.45248 1.3312,-3.27152 0.67175,-1.71898 1.96621,-4.66278 0,0 9.28999,-4.24088 9.28999,-4.24088 v 0 c -1.40487,2.94357 -0.68848,1.39648 -2.13886,4.64604 -2.2747,6.09811 -4.29942,12.4117 -4.50063,18.97334 0,0 -9.2964,4.73676 -9.2964,4.73676 z" />
        </g>
        <g
           id="g12832"
           transform="matrix(0.30792014,0,0,0.30792014,806.94576,149.26216)"
           style="opacity:0.07722006;fill:#1a1a1a;filter:url(#filter11000)">
          <path
             d="m 332.56183,385.2017 c -0.1312,-2.03289 -0.37006,-4.04029 -0.83316,-6.02414 -0.42758,-1.78142 -0.4251,-3.58367 -0.13839,-5.38234 0,0 9.41781,-4.55183 9.41781,-4.55183 v 0 c -0.45185,1.64241 -0.41477,3.31754 -0.0524,4.97924 0.41519,2.02117 0.67301,4.04992 0.89321,6.10069 0,0 -9.28704,4.87838 -9.28704,4.87838 z"
             id="path12838"
             style="fill:#1a1a1a;fill-opacity:1;stroke:none" />
          <path
             d="m 343.22907,383.64191 c 0.35061,-7.2166 1.47709,-14.37355 2.4306,-21.52923 0.51072,-3.60541 1.03833,-7.20656 1.64049,-10.79772 0,0 9.07061,-4.41306 9.07061,-4.41306 v 0 c -0.73856,3.60225 -1.35392,7.22249 -1.88578,10.86181 -0.95087,6.99257 -2.09393,14.04877 -1.92098,21.12181 0,0 -9.33494,4.75639 -9.33494,4.75639 z"
             id="path12840"
             style="fill:#1a1a1a;fill-opacity:1;stroke:none" />
          <path
             d="m 352.44072,380.54992 c 0.59399,-6.68137 2.5168,-13.13564 4.67969,-19.45248 1.3312,-3.27152 0.67175,-1.71898 1.96621,-4.66278 0,0 9.28999,-4.24088 9.28999,-4.24088 v 0 c -1.40487,2.94357 -0.68848,1.39648 -2.13886,4.64604 -2.2747,6.09811 -4.29942,12.4117 -4.50063,18.97334 0,0 -9.2964,4.73676 -9.2964,4.73676 z"
             id="path12842"
             style="fill:#1a1a1a;fill-opacity:1;stroke:none" />
        </g>
      </g>
      <g
         style="fill:#1a1a1a"
         transform="matrix(-1,0,0,1,978.345,67.828427)"
         id="g12844">
        <g
           id="g12846"
           transform="matrix(0.30792014,0,0,0.30792014,783.94576,115.26216)"
           style="opacity:0.07722006;fill:#1a1a1a;filter:url(#filter11000)">
          <path
             d="m 332.56183,385.2017 c -0.1312,-2.03289 -0.37006,-4.04029 -0.83316,-6.02414 -0.42758,-1.78142 -0.4251,-3.58367 -0.13839,-5.38234 0,0 9.41781,-4.55183 9.41781,-4.55183 v 0 c -0.45185,1.64241 -0.41477,3.31754 -0.0524,4.97924 0.41519,2.02117 0.67301,4.04992 0.89321,6.10069 0,0 -9.28704,4.87838 -9.28704,4.87838 z"
             id="path12862"
             style="fill:#1a1a1a;fill-opacity:1;stroke:none" />
          <path
             d="m 343.22907,383.64191 c 0.35061,-7.2166 1.47709,-14.37355 2.4306,-21.52923 0.51072,-3.60541 1.03833,-7.20656 1.64049,-10.79772 0,0 9.07061,-4.41306 9.07061,-4.41306 v 0 c -0.73856,3.60225 -1.35392,7.22249 -1.88578,10.86181 -0.95087,6.99257 -2.09393,14.04877 -1.92098,21.12181 0,0 -9.33494,4.75639 -9.33494,4.75639 z"
             id="path12864"
             style="fill:#1a1a1a;fill-opacity:1;stroke:none" />
          <path
             d="m 352.44072,380.54992 c 0.59399,-6.68137 2.5168,-13.13564 4.67969,-19.45248 1.3312,-3.27152 0.67175,-1.71898 1.96621,-4.66278 0,0 9.28999,-4.24088 9.28999,-4.24088 v 0 c -1.40487,2.94357 -0.68848,1.39648 -2.13886,4.64604 -2.2747,6.09811 -4.29942,12.4117 -4.50063,18.97334 0,0 -9.2964,4.73676 -9.2964,4.73676 z"
             id="path12866"
             style="fill:#1a1a1a;fill-opacity:1;stroke:none" />
        </g>
        <g
           style="opacity:0.07722006;fill:#1a1a1a;filter:url(#filter11000)"
           transform="matrix(0.30792014,0,0,0.30792014,801.94576,124.26216)"
           id="g12868">
          <path
             style="fill:#1a1a1a;fill-opacity:1;stroke:none"
             id="path12870"
             d="m 332.56183,385.2017 c -0.1312,-2.03289 -0.37006,-4.04029 -0.83316,-6.02414 -0.42758,-1.78142 -0.4251,-3.58367 -0.13839,-5.38234 0,0 9.41781,-4.55183 9.41781,-4.55183 v 0 c -0.45185,1.64241 -0.41477,3.31754 -0.0524,4.97924 0.41519,2.02117 0.67301,4.04992 0.89321,6.10069 0,0 -9.28704,4.87838 -9.28704,4.87838 z" />
          <path
             style="fill:#1a1a1a;fill-opacity:1;stroke:none"
             id="path12872"
             d="m 343.22907,383.64191 c 0.35061,-7.2166 1.47709,-14.37355 2.4306,-21.52923 0.51072,-3.60541 1.03833,-7.20656 1.64049,-10.79772 0,0 9.07061,-4.41306 9.07061,-4.41306 v 0 c -0.73856,3.60225 -1.35392,7.22249 -1.88578,10.86181 -0.95087,6.99257 -2.09393,14.04877 -1.92098,21.12181 0,0 -9.33494,4.75639 -9.33494,4.75639 z" />
          <path
             style="fill:#1a1a1a;fill-opacity:1;stroke:none"
             id="path12874"
             d="m 352.44072,380.54992 c 0.59399,-6.68137 2.5168,-13.13564 4.67969,-19.45248 1.3312,-3.27152 0.67175,-1.71898 1.96621,-4.66278 0,0 9.28999,-4.24088 9.28999,-4.24088 v 0 c -1.40487,2.94357 -0.68848,1.39648 -2.13886,4.64604 -2.2747,6.09811 -4.29942,12.4117 -4.50063,18.97334 0,0 -9.2964,4.73676 -9.2964,4.73676 z" />
        </g>
        <g
           id="g12877"
           transform="matrix(0.30792014,0,0,0.30792014,842.94576,120.26216)"
           style="opacity:0.07722006;fill:#1a1a1a;filter:url(#filter11000)">
          <path
             d="m 332.56183,385.2017 c -0.1312,-2.03289 -0.37006,-4.04029 -0.83316,-6.02414 -0.42758,-1.78142 -0.4251,-3.58367 -0.13839,-5.38234 0,0 9.41781,-4.55183 9.41781,-4.55183 v 0 c -0.45185,1.64241 -0.41477,3.31754 -0.0524,4.97924 0.41519,2.02117 0.67301,4.04992 0.89321,6.10069 0,0 -9.28704,4.87838 -9.28704,4.87838 z"
             id="path12954"
             style="fill:#1a1a1a;fill-opacity:1;stroke:none" />
          <path
             d="m 343.22907,383.64191 c 0.35061,-7.2166 1.47709,-14.37355 2.4306,-21.52923 0.51072,-3.60541 1.03833,-7.20656 1.64049,-10.79772 0,0 9.07061,-4.41306 9.07061,-4.41306 v 0 c -0.73856,3.60225 -1.35392,7.22249 -1.88578,10.86181 -0.95087,6.99257 -2.09393,14.04877 -1.92098,21.12181 0,0 -9.33494,4.75639 -9.33494,4.75639 z"
             id="path12956"
             style="fill:#1a1a1a;fill-opacity:1;stroke:none" />
          <path
             d="m 352.44072,380.54992 c 0.59399,-6.68137 2.5168,-13.13564 4.67969,-19.45248 1.3312,-3.27152 0.67175,-1.71898 1.96621,-4.66278 0,0 9.28999,-4.24088 9.28999,-4.24088 v 0 c -1.40487,2.94357 -0.68848,1.39648 -2.13886,4.64604 -2.2747,6.09811 -4.29942,12.4117 -4.50063,18.97334 0,0 -9.2964,4.73676 -9.2964,4.73676 z"
             id="path12958"
             style="fill:#1a1a1a;fill-opacity:1;stroke:none" />
        </g>
        <g
           style="opacity:0.07722006;fill:#1a1a1a;filter:url(#filter11000)"
           transform="matrix(0.30792014,0,0,0.30792014,831.94576,143.26216)"
           id="g12960">
          <path
             style="fill:#1a1a1a;fill-opacity:1;stroke:none"
             id="path12962"
             d="m 332.56183,385.2017 c -0.1312,-2.03289 -0.37006,-4.04029 -0.83316,-6.02414 -0.42758,-1.78142 -0.4251,-3.58367 -0.13839,-5.38234 0,0 9.41781,-4.55183 9.41781,-4.55183 v 0 c -0.45185,1.64241 -0.41477,3.31754 -0.0524,4.97924 0.41519,2.02117 0.67301,4.04992 0.89321,6.10069 0,0 -9.28704,4.87838 -9.28704,4.87838 z" />
          <path
             style="fill:#1a1a1a;fill-opacity:1;stroke:none"
             id="path12964"
             d="m 343.22907,383.64191 c 0.35061,-7.2166 1.47709,-14.37355 2.4306,-21.52923 0.51072,-3.60541 1.03833,-7.20656 1.64049,-10.79772 0,0 9.07061,-4.41306 9.07061,-4.41306 v 0 c -0.73856,3.60225 -1.35392,7.22249 -1.88578,10.86181 -0.95087,6.99257 -2.09393,14.04877 -1.92098,21.12181 0,0 -9.33494,4.75639 -9.33494,4.75639 z" />
          <path
             style="fill:#1a1a1a;fill-opacity:1;stroke:none"
             id="path12966"
             d="m 352.44072,380.54992 c 0.59399,-6.68137 2.5168,-13.13564 4.67969,-19.45248 1.3312,-3.27152 0.67175,-1.71898 1.96621,-4.66278 0,0 9.28999,-4.24088 9.28999,-4.24088 v 0 c -1.40487,2.94357 -0.68848,1.39648 -2.13886,4.64604 -2.2747,6.09811 -4.29942,12.4117 -4.50063,18.97334 0,0 -9.2964,4.73676 -9.2964,4.73676 z" />
        </g>
        <g
           id="g12969"
           transform="matrix(0.30792014,0,0,0.30792014,822.94576,121.26216)"
           style="opacity:0.07722006;fill:#1a1a1a;filter:url(#filter11000)">
          <path
             d="m 332.56183,385.2017 c -0.1312,-2.03289 -0.37006,-4.04029 -0.83316,-6.02414 -0.42758,-1.78142 -0.4251,-3.58367 -0.13839,-5.38234 0,0 9.41781,-4.55183 9.41781,-4.55183 v 0 c -0.45185,1.64241 -0.41477,3.31754 -0.0524,4.97924 0.41519,2.02117 0.67301,4.04992 0.89321,6.10069 0,0 -9.28704,4.87838 -9.28704,4.87838 z"
             id="path12972"
             style="fill:#1a1a1a;fill-opacity:1;stroke:none" />
          <path
             d="m 343.22907,383.64191 c 0.35061,-7.2166 1.47709,-14.37355 2.4306,-21.52923 0.51072,-3.60541 1.03833,-7.20656 1.64049,-10.79772 0,0 9.07061,-4.41306 9.07061,-4.41306 v 0 c -0.73856,3.60225 -1.35392,7.22249 -1.88578,10.86181 -0.95087,6.99257 -2.09393,14.04877 -1.92098,21.12181 0,0 -9.33494,4.75639 -9.33494,4.75639 z"
             id="path12974"
             style="fill:#1a1a1a;fill-opacity:1;stroke:none" />
          <path
             d="m 352.44072,380.54992 c 0.59399,-6.68137 2.5168,-13.13564 4.67969,-19.45248 1.3312,-3.27152 0.67175,-1.71898 1.96621,-4.66278 0,0 9.28999,-4.24088 9.28999,-4.24088 v 0 c -1.40487,2.94357 -0.68848,1.39648 -2.13886,4.64604 -2.2747,6.09811 -4.29942,12.4117 -4.50063,18.97334 0,0 -9.2964,4.73676 -9.2964,4.73676 z"
             id="path12976"
             style="fill:#1a1a1a;fill-opacity:1;stroke:none" />
        </g>
        <g
           style="opacity:0.07722006;fill:#1a1a1a;filter:url(#filter11000)"
           transform="matrix(0.30792014,0,0,0.30792014,792.94576,144.26216)"
           id="g12978">
          <path
             style="fill:#1a1a1a;fill-opacity:1;stroke:none"
             id="path12980"
             d="m 332.56183,385.2017 c -0.1312,-2.03289 -0.37006,-4.04029 -0.83316,-6.02414 -0.42758,-1.78142 -0.4251,-3.58367 -0.13839,-5.38234 0,0 9.41781,-4.55183 9.41781,-4.55183 v 0 c -0.45185,1.64241 -0.41477,3.31754 -0.0524,4.97924 0.41519,2.02117 0.67301,4.04992 0.89321,6.10069 0,0 -9.28704,4.87838 -9.28704,4.87838 z" />
          <path
             style="fill:#1a1a1a;fill-opacity:1;stroke:none"
             id="path12982"
             d="m 343.22907,383.64191 c 0.35061,-7.2166 1.47709,-14.37355 2.4306,-21.52923 0.51072,-3.60541 1.03833,-7.20656 1.64049,-10.79772 0,0 9.07061,-4.41306 9.07061,-4.41306 v 0 c -0.73856,3.60225 -1.35392,7.22249 -1.88578,10.86181 -0.95087,6.99257 -2.09393,14.04877 -1.92098,21.12181 0,0 -9.33494,4.75639 -9.33494,4.75639 z" />
          <path
             style="fill:#1a1a1a;fill-opacity:1;stroke:none"
             id="path12984"
             d="m 352.44072,380.54992 c 0.59399,-6.68137 2.5168,-13.13564 4.67969,-19.45248 1.3312,-3.27152 0.67175,-1.71898 1.96621,-4.66278 0,0 9.28999,-4.24088 9.28999,-4.24088 v 0 c -1.40487,2.94357 -0.68848,1.39648 -2.13886,4.64604 -2.2747,6.09811 -4.29942,12.4117 -4.50063,18.97334 0,0 -9.2964,4.73676 -9.2964,4.73676 z" />
        </g>
        <g
           id="g12986"
           transform="matrix(0.30792014,0,0,0.30792014,806.94576,149.26216)"
           style="opacity:0.07722006;fill:#1a1a1a;filter:url(#filter11000)">
          <path
             d="m 332.56183,385.2017 c -0.1312,-2.03289 -0.37006,-4.04029 -0.83316,-6.02414 -0.42758,-1.78142 -0.4251,-3.58367 -0.13839,-5.38234 0,0 9.41781,-4.55183 9.41781,-4.55183 v 0 c -0.45185,1.64241 -0.41477,3.31754 -0.0524,4.97924 0.41519,2.02117 0.67301,4.04992 0.89321,6.10069 0,0 -9.28704,4.87838 -9.28704,4.87838 z"
             id="path12988"
             style="fill:#1a1a1a;fill-opacity:1;stroke:none" />
          <path
             d="m 343.22907,383.64191 c 0.35061,-7.2166 1.47709,-14.37355 2.4306,-21.52923 0.51072,-3.60541 1.03833,-7.20656 1.64049,-10.79772 0,0 9.07061,-4.41306 9.07061,-4.41306 v 0 c -0.73856,3.60225 -1.35392,7.22249 -1.88578,10.86181 -0.95087,6.99257 -2.09393,14.04877 -1.92098,21.12181 0,0 -9.33494,4.75639 -9.33494,4.75639 z"
             id="path12990"
             style="fill:#1a1a1a;fill-opacity:1;stroke:none" />
          <path
             d="m 352.44072,380.54992 c 0.59399,-6.68137 2.5168,-13.13564 4.67969,-19.45248 1.3312,-3.27152 0.67175,-1.71898 1.96621,-4.66278 0,0 9.28999,-4.24088 9.28999,-4.24088 v 0 c -1.40487,2.94357 -0.68848,1.39648 -2.13886,4.64604 -2.2747,6.09811 -4.29942,12.4117 -4.50063,18.97334 0,0 -9.2964,4.73676 -9.2964,4.73676 z"
             id="path12992"
             style="fill:#1a1a1a;fill-opacity:1;stroke:none" />
        </g>
      </g>
    </g>
    <rect
       y="297.35696"
       x="0.99610525"
       height="527.80573"
       width="791.70862"
       id="rect19013"
       style="display:inline;opacity:0.22393823;fill:url(#radialGradient19029);fill-opacity:1;stroke:none;stroke-width:0.82469648" />
    <rect
       transform="matrix(0.82469646,0,0,0.82469646,68.621215,273.96678)"
       y="21.362154"
       x="45.999962"
       height="654"
       width="704"
       id="rect19032"
       style="display:inline;opacity:0.15057918;fill:url(#linearGradient19058);fill-opacity:1;stroke:none;filter:url(#filter19088)" />
    <rect
       transform="matrix(-0.82469646,0,0,0.82469646,792.70468,266.54451)"
       style="display:inline;opacity:0.15057918;fill:url(#linearGradient19070);fill-opacity:1;stroke:none;filter:url(#filter19084)"
       id="rect19068"
       width="704"
       height="654"
       x="128"
       y="30.362183" />
  </g>
</svg>
