<?xml version="1.0" encoding="UTF-8" standalone="no"?>
<svg
   xmlns:dc="http://purl.org/dc/elements/1.1/"
   xmlns:cc="http://creativecommons.org/ns#"
   xmlns:rdf="http://www.w3.org/1999/02/22-rdf-syntax-ns#"
   xmlns:svg="http://www.w3.org/2000/svg"
   xmlns="http://www.w3.org/2000/svg"
   xmlns:xlink="http://www.w3.org/1999/xlink"
   version="1.1"
   id="svg2"
   height="297mm"
   width="210mm">
  <defs
     id="defs4">
    <linearGradient
       id="linearGradient27689">
      <stop
         id="stop27691"
         offset="0"
         style="stop-color:#000000;stop-opacity:1;" />
      <stop
         id="stop27693"
         offset="1"
         style="stop-color:#000000;stop-opacity:0;" />
    </linearGradient>
    <linearGradient
       id="linearGradient27413">
      <stop
         id="stop27415"
         offset="0"
         style="stop-color:#000000;stop-opacity:1;" />
      <stop
         id="stop27417"
         offset="1"
         style="stop-color:#000000;stop-opacity:0;" />
    </linearGradient>
    <linearGradient
       id="linearGradient27405">
      <stop
         id="stop27407"
         offset="0"
         style="stop-color:#000000;stop-opacity:1;" />
      <stop
         id="stop27409"
         offset="1"
         style="stop-color:#000000;stop-opacity:0;" />
    </linearGradient>
    <linearGradient
       id="linearGradient27260">
      <stop
         id="stop27262"
         offset="0"
         style="stop-color:#000000;stop-opacity:1;" />
      <stop
         id="stop27264"
         offset="1"
         style="stop-color:#000000;stop-opacity:0;" />
    </linearGradient>
    <linearGradient
       y2="171.76633"
       x2="330.37868"
       y1="171.76633"
       x1="321.81297"
       gradientTransform="matrix(1.6753846,0,0,1.0217045,-157.87421,175.99875)"
       gradientUnits="userSpaceOnUse"
       id="linearGradient27535"
       xlink:href="#linearGradient27260" />
    <filter
       color-interpolation-filters="sRGB"
       x="-0.25"
       y="-0.25"
       width="1.5"
       height="1.5"
       id="filter27635">
      <feGaussianBlur
         result="result1"
         stdDeviation="4"
         id="feGaussianBlur27637" />
      <feComposite
         operator="in"
         result="result4"
         in="result1"
         in2="result1"
         id="feComposite27639" />
      <feGaussianBlur
         in="result4"
         result="result6"
         stdDeviation="2"
         id="feGaussianBlur27641" />
      <feComposite
         result="result8"
         in="result6"
         operator="xor"
         in2="result4"
         id="feComposite27643" />
      <feComposite
         in="result4"
         result="fbSourceGraphic"
         operator="atop"
         in2="result8"
         id="feComposite27645" />
      <feSpecularLighting
         in="fbSourceGraphic"
         result="result1"
         lighting-color="rgb(255,255,255)"
         surfaceScale="3"
         specularConstant="1.3"
         specularExponent="10"
         id="feSpecularLighting27647">
        <feDistantLight
           elevation="55"
           azimuth="235"
           id="feDistantLight27649" />
      </feSpecularLighting>
      <feComposite
         in="result1"
         result="result2"
         operator="atop"
         in2="fbSourceGraphic"
         id="feComposite27651" />
      <feComposite
         in="fbSourceGraphic"
         result="result4"
         operator="arithmetic"
         k2="1"
         k3="1"
         in2="result2"
         id="feComposite27653" />
      <feComposite
         result="result9"
         in="result4"
         operator="over"
         in2="SourceGraphic"
         id="feComposite27655" />
      <feBlend
         mode="multiply"
         in2="result2"
         id="feBlend27657" />
    </filter>
    <filter
       color-interpolation-filters="sRGB"
       x="-0.25"
       y="-0.25"
       width="1.5"
       height="1.5"
       id="filter27661">
      <feGaussianBlur
         result="result1"
         stdDeviation="4"
         id="feGaussianBlur27663" />
      <feComposite
         operator="in"
         result="result4"
         in="result1"
         in2="result1"
         id="feComposite27665" />
      <feGaussianBlur
         in="result4"
         result="result6"
         stdDeviation="2"
         id="feGaussianBlur27667" />
      <feComposite
         result="result8"
         in="result6"
         operator="xor"
         in2="result4"
         id="feComposite27669" />
      <feComposite
         in="result4"
         result="fbSourceGraphic"
         operator="atop"
         in2="result8"
         id="feComposite27671" />
      <feSpecularLighting
         in="fbSourceGraphic"
         result="result1"
         lighting-color="rgb(255,255,255)"
         surfaceScale="3"
         specularConstant="1.3"
         specularExponent="10"
         id="feSpecularLighting27673">
        <feDistantLight
           elevation="55"
           azimuth="235"
           id="feDistantLight27675" />
      </feSpecularLighting>
      <feComposite
         in="result1"
         result="result2"
         operator="atop"
         in2="fbSourceGraphic"
         id="feComposite27677" />
      <feComposite
         in="fbSourceGraphic"
         result="result4"
         operator="arithmetic"
         k2="1"
         k3="1"
         in2="result2"
         id="feComposite27679" />
      <feComposite
         result="result9"
         in="result4"
         operator="over"
         in2="SourceGraphic"
         id="feComposite27681" />
      <feBlend
         mode="multiply"
         in2="result2"
         id="feBlend27683" />
    </filter>
    <linearGradient
       gradientTransform="matrix(0.67991311,0,0,0.71895728,115.5632,109.72549)"
       gradientUnits="userSpaceOnUse"
       y2="413.04837"
       x2="553.68274"
       y1="693.87878"
       x1="144.22441"
       id="linearGradient27695"
       xlink:href="#linearGradient27689" />
    <filter
       id="filter27737">
      <feGaussianBlur
         id="feGaussianBlur27739"
         stdDeviation="5.7575278" />
    </filter>
    <filter
       height="1.4708046"
       y="-0.2354023"
       width="1.192176"
       x="-0.096088012"
       id="filter27787">
      <feGaussianBlur
         id="feGaussianBlur27789"
         stdDeviation="8.3254009" />
    </filter>
    <filter
       height="1.2643673"
       y="-0.13218365"
       width="1.3254972"
       x="-0.16274862"
       id="filter27809">
      <feGaussianBlur
         id="feGaussianBlur27811"
         stdDeviation="4.4823811" />
    </filter>
    <linearGradient
       y2="363.78614"
       x2="275.40346"
       y1="363.78614"
       x1="265.60771"
       gradientTransform="translate(-103.86919,37.816234)"
       gradientUnits="userSpaceOnUse"
       id="linearGradient6386"
       xlink:href="#linearGradient27413" />
    <linearGradient
       y2="355.32789"
       x2="288.32063"
       y1="355.32789"
       x1="280.58974"
       gradientTransform="translate(-103.86919,37.816234)"
       gradientUnits="userSpaceOnUse"
       id="linearGradient6388"
       xlink:href="#linearGradient27405" />
    <linearGradient
       y2="363.78614"
       x2="275.40346"
       y1="363.78614"
       x1="265.60771"
       gradientTransform="translate(-103.86919,37.816234)"
       gradientUnits="userSpaceOnUse"
       id="linearGradient4139"
       xlink:href="#linearGradient27413" />
    <linearGradient
       y2="355.32789"
       x2="288.32063"
       y1="355.32789"
       x1="280.58974"
       gradientTransform="translate(-103.86919,37.816234)"
       gradientUnits="userSpaceOnUse"
       id="linearGradient4141"
       xlink:href="#linearGradient27405" />
    <linearGradient
       y2="171.76633"
       x2="330.37868"
       y1="171.76633"
       x1="321.81297"
       gradientTransform="matrix(1.4319197,0,0,0.87323167,-194.46625,194.56469)"
       gradientUnits="userSpaceOnUse"
       id="linearGradient4143"
       xlink:href="#linearGradient27260" />
    <linearGradient
       y2="363.78614"
       x2="275.40346"
       y1="363.78614"
       x1="265.60771"
       gradientTransform="translate(-103.86919,37.816234)"
       gradientUnits="userSpaceOnUse"
       id="linearGradient4167"
       xlink:href="#linearGradient27413" />
    <linearGradient
       y2="355.32789"
       x2="288.32063"
       y1="355.32789"
       x1="280.58974"
       gradientTransform="translate(-103.86919,37.816234)"
       gradientUnits="userSpaceOnUse"
       id="linearGradient4169"
       xlink:href="#linearGradient27405" />
    <linearGradient
       y2="171.76633"
       x2="330.37868"
       y1="171.76633"
       x1="321.81297"
       gradientTransform="matrix(1.4319197,0,0,0.87323167,-194.46625,194.56469)"
       gradientUnits="userSpaceOnUse"
       id="linearGradient4171"
       xlink:href="#linearGradient27260" />
  </defs>
  <metadata
     id="metadata7">
    <rdf:RDF>
      <cc:Work
         rdf:about="">
        <dc:format>image/svg+xml</dc:format>
        <dc:type
           rdf:resource="http://purl.org/dc/dcmitype/StillImage" />
        <dc:title></dc:title>
      </cc:Work>
    </rdf:RDF>
  </metadata>
  <g
     style="display:inline"
     id="layer16">
    <g
       transform="translate(16.970563,25.455844)"
       id="g4392">
      <g
         transform="matrix(-0.58258815,0.33635742,0.33635742,0.58258815,331.44305,92.188856)"
         id="g4165">
        <g
           transform="matrix(1.9089364,2.122412,-1.0860565,3.7305141,-328.39995,-168.25787)"
           id="g4159">
          <path
             transform="matrix(0.39817088,0,0,0.39759945,221.60124,-183.19306)"
             style="fill:#b0aeaf;fill-opacity:1;stroke:none"
             d="m 164.51392,403.21361 c -1.47781,-1.89063 -2.84722,-3.62683 -3.04312,-3.85822 -0.32393,-0.38262 0.44353,-0.954 8.47429,-6.30915 6.86178,-4.57565 8.8938,-5.81951 9.1145,-5.57929 0.15622,0.17004 1.38493,2.10916 2.73047,4.30916 1.34554,2.2 2.60803,4.24812 2.80553,4.55139 0.35069,0.5385 0.28988,0.58585 -2.59988,2.02421 -3.55028,1.76712 -8.46405,4.50834 -12.00661,6.69806 -1.42487,0.88073 -2.63512,1.60134 -2.68945,1.60134 -0.0543,0 -1.30791,-1.54688 -2.78573,-3.4375 z"
             id="path4153" />
          <path
             transform="matrix(0.39817088,0,0,0.39759945,221.60124,-183.19306)"
             style="opacity:0.47011952;fill:url(#linearGradient4167);fill-opacity:1;stroke:none"
             d="m 164.4401,402.88142 c -1.54922,-1.93582 -2.76382,-3.65764 -2.69911,-3.82627 0.0647,-0.16863 0.75304,-0.7442 1.52963,-1.27906 l 1.41197,-0.97246 3.47609,3.46943 c 1.91184,1.90819 3.43018,3.5437 3.37408,3.63447 -0.0983,0.15913 -4.0235,2.49358 -4.19272,2.49358 -0.0457,0 -1.35072,-1.58386 -2.89994,-3.51969 z"
             id="path4155" />
          <path
             transform="matrix(0.39817088,0,0,0.39759945,221.60124,-183.19306)"
             style="opacity:0.45816734;fill:url(#linearGradient4169);fill-opacity:1;stroke:none"
             d="m 178.97425,393.82153 -2.2537,-5.03742 0.90809,-0.5587 c 0.49945,-0.30728 1.02194,-0.56221 1.16108,-0.5665 0.2462,-0.008 5.59395,8.36851 5.66129,8.8672 0.0186,0.1375 -0.5733,0.60891 -1.31526,1.04759 -0.74196,0.43868 -1.47474,0.90732 -1.62841,1.04142 -0.19817,0.17295 -0.93447,-1.22042 -2.53309,-4.79359 z"
             id="path4157" />
        </g>
        <path
           id="path4161"
           d="m 225.67669,344.57109 v -6.48342 h 26.32551 26.32554 v 6.48342 6.48341 H 252.0022 225.67669 Z"
           style="fill:#9b9b9d;fill-opacity:1;stroke:none;stroke-width:1.11821175" />
        <path
           id="path4163"
           d="m 266.58245,345.7026 c 0.13117,-2.97171 0.33194,-5.91887 0.44627,-6.54924 l 0.20789,-1.14611 h 5.68644 5.68643 v 6.54924 6.54924 h -6.1327 -6.13271 z"
           style="opacity:0.50199202;fill:url(#linearGradient4171);fill-opacity:1;stroke:none;stroke-width:1.11821175" />
      </g>
      <g
         id="g4151"
         transform="matrix(0.58258815,0.33635742,-0.33635742,0.58258815,399.42294,92.188856)">
        <g
           id="g4133"
           transform="matrix(1.9089364,2.122412,-1.0860565,3.7305141,-328.39995,-168.25787)">
          <path
             id="path4127"
             d="m 164.51392,403.21361 c -1.47781,-1.89063 -2.84722,-3.62683 -3.04312,-3.85822 -0.32393,-0.38262 0.44353,-0.954 8.47429,-6.30915 6.86178,-4.57565 8.8938,-5.81951 9.1145,-5.57929 0.15622,0.17004 1.38493,2.10916 2.73047,4.30916 1.34554,2.2 2.60803,4.24812 2.80553,4.55139 0.35069,0.5385 0.28988,0.58585 -2.59988,2.02421 -3.55028,1.76712 -8.46405,4.50834 -12.00661,6.69806 -1.42487,0.88073 -2.63512,1.60134 -2.68945,1.60134 -0.0543,0 -1.30791,-1.54688 -2.78573,-3.4375 z"
             style="fill:#b0aeaf;fill-opacity:1;stroke:none"
             transform="matrix(0.39817088,0,0,0.39759945,221.60124,-183.19306)" />
          <path
             id="path4129"
             d="m 164.4401,402.88142 c -1.54922,-1.93582 -2.76382,-3.65764 -2.69911,-3.82627 0.0647,-0.16863 0.75304,-0.7442 1.52963,-1.27906 l 1.41197,-0.97246 3.47609,3.46943 c 1.91184,1.90819 3.43018,3.5437 3.37408,3.63447 -0.0983,0.15913 -4.0235,2.49358 -4.19272,2.49358 -0.0457,0 -1.35072,-1.58386 -2.89994,-3.51969 z"
             style="opacity:0.47011952;fill:url(#linearGradient4139);fill-opacity:1;stroke:none"
             transform="matrix(0.39817088,0,0,0.39759945,221.60124,-183.19306)" />
          <path
             id="path4131"
             d="m 178.97425,393.82153 -2.2537,-5.03742 0.90809,-0.5587 c 0.49945,-0.30728 1.02194,-0.56221 1.16108,-0.5665 0.2462,-0.008 5.59395,8.36851 5.66129,8.8672 0.0186,0.1375 -0.5733,0.60891 -1.31526,1.04759 -0.74196,0.43868 -1.47474,0.90732 -1.62841,1.04142 -0.19817,0.17295 -0.93447,-1.22042 -2.53309,-4.79359 z"
             style="opacity:0.45816734;fill:url(#linearGradient4141);fill-opacity:1;stroke:none"
             transform="matrix(0.39817088,0,0,0.39759945,221.60124,-183.19306)" />
        </g>
        <path
           style="fill:#9b9b9d;fill-opacity:1;stroke:none;stroke-width:1.11821175"
           d="m 225.67669,344.57109 v -6.48342 h 26.32551 26.32554 v 6.48342 6.48341 H 252.0022 225.67669 Z"
           id="path4135" />
        <path
           style="opacity:0.50199202;fill:url(#linearGradient4143);fill-opacity:1;stroke:none;stroke-width:1.11821175"
           d="m 266.58245,345.7026 c 0.13117,-2.97171 0.33194,-5.91887 0.44627,-6.54924 l 0.20789,-1.14611 h 5.68644 5.68643 v 6.54924 6.54924 h -6.1327 -6.13271 z"
           id="path4137" />
      </g>
      <g
         id="g6381"
         transform="matrix(2.233507,2.4832792,-1.2707154,4.364802,-314.58025,-248.51341)">
        <path
           id="path6367"
           d="m 164.51392,403.21361 c -1.47781,-1.89063 -2.84722,-3.62683 -3.04312,-3.85822 -0.32393,-0.38262 0.44353,-0.954 8.47429,-6.30915 6.86178,-4.57565 8.8938,-5.81951 9.1145,-5.57929 0.15622,0.17004 1.38493,2.10916 2.73047,4.30916 1.34554,2.2 2.60803,4.24812 2.80553,4.55139 0.35069,0.5385 0.28988,0.58585 -2.59988,2.02421 -3.55028,1.76712 -8.46405,4.50834 -12.00661,6.69806 -1.42487,0.88073 -2.63512,1.60134 -2.68945,1.60134 -0.0543,0 -1.30791,-1.54688 -2.78573,-3.4375 z"
           style="fill:#b0aeaf;fill-opacity:1;stroke:none"
           transform="matrix(0.39817088,0,0,0.39759945,221.60124,-183.19306)" />
        <path
           id="path6369"
           d="m 164.4401,402.88142 c -1.54922,-1.93582 -2.76382,-3.65764 -2.69911,-3.82627 0.0647,-0.16863 0.75304,-0.7442 1.52963,-1.27906 l 1.41197,-0.97246 3.47609,3.46943 c 1.91184,1.90819 3.43018,3.5437 3.37408,3.63447 -0.0983,0.15913 -4.0235,2.49358 -4.19272,2.49358 -0.0457,0 -1.35072,-1.58386 -2.89994,-3.51969 z"
           style="opacity:0.47011952;fill:url(#linearGradient6386);fill-opacity:1;stroke:none"
           transform="matrix(0.39817088,0,0,0.39759945,221.60124,-183.19306)" />
        <path
           id="path6371"
           d="m 178.97425,393.82153 -2.2537,-5.03742 0.90809,-0.5587 c 0.49945,-0.30728 1.02194,-0.56221 1.16108,-0.5665 0.2462,-0.008 5.59395,8.36851 5.66129,8.8672 0.0186,0.1375 -0.5733,0.60891 -1.31526,1.04759 -0.74196,0.43868 -1.47474,0.90732 -1.62841,1.04142 -0.19817,0.17295 -0.93447,-1.22042 -2.53309,-4.79359 z"
           style="opacity:0.45816734;fill:url(#linearGradient6388);fill-opacity:1;stroke:none"
           transform="matrix(0.39817088,0,0,0.39759945,221.60124,-183.19306)" />
      </g>
      <path
         d="M 314.70159,575.301 A 111.64693,107.28582 0 0 1 266.62821,431.50989 111.64693,107.28582 0 0 1 415.81833,384.00092 111.64693,107.28582 0 0 1 466.62116,526.92285 111.64693,107.28582 0 0 1 318.36048,577.04659"
         id="path27439"
         style="fill:#babcbe;fill-opacity:1;stroke:none;stroke-width:0.6590122" />
      <path
         transform="matrix(0.67991311,0,0,0.71895728,118.46228,111.13166)"
         d="M 304.88781,620.21971 A 130.10765,120.20815 0 0 1 248.86554,459.10929 130.10765,120.20815 0 0 1 422.72412,405.87798 130.10765,120.20815 0 0 1 481.92715,566.01453 130.10765,120.20815 0 0 1 309.1517,622.17555"
         id="path27441"
         style="fill:#ffffff;fill-opacity:1;stroke:none;filter:url(#filter27635)" />
      <path
         style="fill:none;stroke:#000000;stroke-width:0.97906399;stroke-opacity:1"
         id="path27489"
         d="M 314.36732,575.69768 A 112.37137,107.43465 0 0 1 266.44841,430.83899 112.37137,107.43465 0 0 1 417.96045,385.01605 112.37137,107.43465 0 0 1 465.89863,529.86892 112.37137,107.43465 0 0 1 314.39268,575.71028" />
      <path
         style="fill:#9b9b9d;fill-opacity:1;stroke:none;stroke-width:1.30833781"
         d="m 333.70434,351.51029 v -7.58578 h 30.80156 30.80159 v 7.58578 7.58576 H 364.5059 333.70434 Z"
         id="path27495" />
      <path
         style="opacity:0.50199202;fill:url(#linearGradient27535);fill-opacity:1;stroke:none;stroke-width:1.30833781"
         d="m 381.56518,352.83419 c 0.15347,-3.47698 0.38838,-6.92524 0.52215,-7.66279 l 0.24324,-1.34098 h 6.65328 6.65328 v 7.66279 7.66278 h -7.17542 -7.17544 z"
         id="path27499" />
      <path
         id="path27531"
         d="m 359.75066,587.10693 c -31.99377,-2.48307 -60.19724,-16.10939 -79.31669,-38.32134 -9.63005,-11.18766 -16.13025,-22.51748 -20.58171,-35.87383 -7.18985,-21.57268 -7.26319,-43.18861 -0.21954,-64.70936 3.52973,-10.78454 11.53707,-25.35004 18.50055,-33.65285 8.09862,-9.65626 22.94759,-22.46487 25.55164,-22.04066 0.48956,0.0797 0.8368,-0.16461 0.8368,-0.58886 0,-1.39449 12.67116,-7.9511 22.1438,-11.45817 4.95262,-1.83362 13.15974,-4.03257 19.9354,-5.34134 5.43839,-1.05048 28.04389,-1.50152 34.18934,-0.68218 43.26801,5.76864 78.64806,34.11815 91.77168,73.53527 7.1559,21.49296 7.14757,43.70681 -0.0244,64.93815 -9.18027,27.17664 -28.60565,49.09024 -55.20489,62.27618 -11.19809,5.55118 -25.41491,9.79832 -37.49875,11.20237 -4.9506,0.57522 -16.56522,0.98966 -20.08325,0.71662 v 0 z m 25.10406,-4.65294 c 21.85613,-3.93357 41.07305,-13.4348 56.49661,-27.93306 17.36317,-16.3215 28.98184,-39.26853 31.94079,-63.08353 0.73125,-5.88538 0.61539,-19.15976 -0.22294,-25.54582 -0.8487,-6.4649 -3.35747,-16.59146 -5.51814,-22.27369 -3.7291,-9.807 -10.16871,-21.12977 -16.42638,-28.8825 -3.52524,-4.36749 -11.42456,-12.26449 -15.73942,-15.73481 -27.10119,-21.7967 -62.54779,-29.49887 -96.47248,-20.96243 -14.74704,3.71078 -30.01658,11.30709 -41.78788,20.78869 -20.79783,16.75232 -34.54124,41.38357 -38.07908,68.24623 -0.84442,6.4116 -0.71931,19.12656 0.25582,25.99914 4.9628,34.97711 26.87613,64.75414 58.94748,80.10108 12.06374,5.7728 22.62104,8.72243 37.91527,10.59324 0.92048,0.11259 6.29992,0.12474 11.95431,0.027 8.22823,-0.14225 11.56948,-0.40967 16.73604,-1.33953 v 1e-5 z"
         style="fill:#808080;fill-opacity:1;stroke:none;stroke-width:0.67575288" />
      <path
         style="fill:#808080;fill-opacity:1;stroke:none;filter:url(#filter27661)"
         d="m 250.79771,697.42304 c -47.31139,-3.67717 -89.01779,-23.85631 -117.29104,-56.74985 -14.24061,-16.56773 -23.8529,-33.34599 -30.43559,-53.12533 -10.63212,-31.94685 -10.74057,-63.95775 -0.32465,-95.8277 5.21966,-15.97077 17.06066,-37.54072 27.35804,-49.8363 11.97598,-14.2999 33.93417,-33.2681 37.78497,-32.63989 0.72394,0.1181 1.23743,-0.24376 1.23743,-0.87204 0,-2.06509 18.73772,-11.77473 32.74556,-16.96833 7.32377,-2.71539 19.46021,-5.97181 29.47984,-7.90996 8.04212,-1.55564 41.47042,-2.22359 50.55813,-1.01024 63.98337,8.54275 116.30229,50.52537 135.70908,108.89794 10.58193,31.82879 10.5696,64.72515 -0.0361,96.16652 -13.57549,40.24572 -42.30113,72.69744 -81.63526,92.22442 -16.55938,8.22071 -37.58277,14.51026 -55.45198,16.58952 -7.32079,0.85184 -24.49612,1.46558 -29.69848,1.06124 h 1e-5 z m 37.1231,-6.89051 c 32.32016,-5.82521 60.73753,-19.89552 83.54542,-41.36591 25.67611,-24.17041 42.85743,-58.15253 47.23304,-93.42002 1.08134,-8.71562 0.91002,-28.37356 -0.32969,-37.83065 -1.25503,-9.57383 -4.96492,-24.57019 -8.16004,-32.98497 -5.51448,-14.52313 -15.03717,-31.29094 -24.29082,-42.77192 -5.21302,-6.46778 -16.89429,-18.16241 -23.27497,-23.30158 -40.07639,-32.27861 -92.49371,-43.6847 -142.66047,-31.04314 -21.80746,5.49528 -44.38758,16.74461 -61.79461,30.78585 -30.75518,24.80841 -51.0785,61.28467 -56.31016,101.06542 -1.2487,9.49491 -1.06369,28.32442 0.3783,38.50197 7.33884,51.79739 39.74359,95.89402 87.16969,118.62121 17.83948,8.5489 33.45129,12.91699 56.06791,15.68746 1.36118,0.16674 9.31613,0.18473 17.67766,0.04 12.16765,-0.21065 17.10859,-0.60668 24.74874,-1.9837 v 2e-5 z"
         id="path27659"
         transform="matrix(0.67623829,0,0,0.6752678,190.15165,116.15961)" />
      <path
         style="opacity:0.2;fill:url(#linearGradient27695);fill-opacity:1;stroke:none;stroke-width:0.69916272"
         id="path27687"
         d="M 322.86041,555.63695 A 88.461899,86.42453 0 0 1 284.77013,439.80544 88.461899,86.42453 0 0 1 402.97886,401.5344 88.461899,86.42453 0 0 1 443.23178,516.66574 88.461899,86.42453 0 0 1 325.75948,557.04312" />
      <path
         style="opacity:0.50996016;fill:#ffffff;fill-opacity:1;stroke:none;filter:url(#filter27737)"
         d="m 389.21885,609.87212 -14.06935,-7.72897 2.35342,-8.49992 c 6.07641,-21.94634 8.61494,-39.89896 8.62548,-60.99991 0.01,-19.5533 -1.84669,-31.20831 -7.56604,-47.5 -10.42628,-29.69947 -35.38021,-53.52075 -67.40076,-64.34147 -35.01426,-11.83239 -80.67044,-8.11184 -115.64485,9.42395 -18.70717,9.37957 -36.40431,23.75196 -46.68895,37.91752 -2.3959,3.3 -4.46983,6.14738 -4.60874,6.32751 -0.21598,0.28008 -27.34222,-14.40554 -28.20787,-15.27119 -0.16996,-0.16996 2.43935,-4.37659 5.79846,-9.34806 6.73934,-9.97421 20.64843,-24.01908 31.19102,-31.49551 20.55242,-14.57504 49.41369,-25.67553 78.78753,-30.30292 14.32229,-2.25624 43.87939,-2.26386 57.96193,-0.0149 53.25447,8.50455 92.58983,34.70704 113.24915,75.43872 10.34797,20.40194 14.61972,38.38438 15.48033,65.16638 0.60174,18.72592 -0.73013,33.56858 -4.80069,53.5 -2.36102,11.56066 -8.99393,35.51001 -9.82609,35.47888 -0.31055,-0.0116 -6.89584,-3.49915 -14.63398,-7.75008 z"
         id="path27735"
         transform="matrix(0.67623829,0,0,0.6752678,190.15165,116.15961)" />
      <path
         style="opacity:0.50996016;fill:#999999;fill-opacity:1;stroke:none;filter:url(#filter27787)"
         d="m 252.28821,691.51495 c -7.15,-0.34559 -15.82095,-1.15443 -19.26878,-1.7974 -3.44783,-0.64298 -6.71033,-0.89616 -7.25,-0.56262 -0.53967,0.33353 -0.98122,0.23367 -0.98122,-0.22192 0,-0.45559 -3.9375,-1.9065 -8.75,-3.22423 -30.32357,-8.30308 -61.62862,-29.04098 -80.69151,-53.45378 -6.52424,-8.35522 -16.88183,-24.62168 -16.14617,-25.35734 0.22743,-0.22743 9.07371,2.55917 19.6584,6.19244 l 19.2449,6.60595 8.76846,8.86922 c 4.82265,4.87807 12.17664,11.24881 16.34219,14.1572 4.48922,3.13438 7.57373,5.99453 7.57373,7.02285 0,2.42919 6.64396,6.43837 8.33871,5.03185 0.93868,-0.77903 4.038,0.0176 11.56721,2.97327 12.23048,4.80116 21.87428,7.32973 36.09408,9.46375 12.61448,1.89311 15.54824,1.95824 24,0.53283 3.575,-0.60293 9.54864,-1.59078 13.27475,-2.19521 l 6.77474,-1.09897 18.5274,6.24312 c 10.19,3.43371 18.1664,6.56604 17.7252,6.96071 -0.4411,0.39468 -4.1771,1.977 -8.3021,3.51627 -4.125,1.53927 -7.6509,3.1776 -7.8354,3.64075 -0.1845,0.46315 -0.7388,0.59279 -1.2318,0.28809 -0.493,-0.3047 -3.9421,0.32346 -7.6646,1.39591 -15.08704,4.34656 -30.82335,5.93297 -49.76819,5.01726 z"
         id="path27781"
         transform="matrix(0.67623829,0,0,0.6752678,190.15165,116.15961)" />
      <path
         style="opacity:1;fill:#ffffff;fill-opacity:1;stroke:none;stroke-width:1.84590554;stroke-linejoin:miter;stroke-miterlimit:4;stroke-dasharray:none;stroke-dashoffset:0;stroke-opacity:1"
         d="m 357.29537,563.76562 c -17.28593,-2.55145 -30.45148,-7.82867 -42.87126,-17.18436 -24.11482,-18.16545 -36.76599,-47.92889 -32.8559,-77.29758 1.27459,-9.57355 3.4874,-16.68232 8.1218,-26.09186 3.67725,-7.46617 7.93082,-13.74815 13.09121,-19.33405 l 3.3264,-3.60068 3.91473,3.65303 c 25.79237,24.06827 119.77501,113.61859 119.64822,114.0055 -0.35681,1.08886 -8.98773,8.26072 -13.87089,11.52602 -9.28554,6.20912 -19.69757,10.55152 -31.1202,12.9789 -5.00278,1.06312 -7.40962,1.27601 -15.90681,1.407 -5.50666,0.0849 -10.67145,0.057 -11.4773,-0.0619 z"
         id="path4179" />
      <path
         style="opacity:0.50996016;fill:#b3b3b3;fill-opacity:1;stroke:none;filter:url(#filter27809)"
         d="m 119.45334,508.42634 -11.83487,-5.06472 0.66063,-3.60915 c 1.81821,-9.93327 10.66991,-31.43523 17.60616,-42.76772 4.68536,-7.65498 14.57976,-20.8877 17.71673,-23.69426 2.02952,-1.81576 2.34721,-1.75726 15.87858,2.92395 7.5942,2.62723 13.99567,4.92404 14.22549,5.10402 0.22982,0.17997 -2.71258,3.58919 -6.53865,7.57604 -3.82607,3.98685 -8.64244,9.58068 -10.70304,12.43073 -2.0606,2.85006 -5.08071,6.61015 -6.71135,8.35576 -1.63065,1.74561 -2.96481,3.96287 -2.96481,4.92725 0,0.96438 -1.52417,5.07929 -3.38704,9.14424 -3.24432,7.0794 -6.44221,16.55315 -8.65514,25.64084 -0.5692,2.3375 -1.58007,4.21574 -2.24637,4.17386 -0.6663,-0.0419 -6.53714,-2.35525 -13.04632,-5.14084 z"
         id="path27793"
         transform="matrix(0.67623829,0,0,0.6752678,190.15165,116.15961)" />
      <path
         id="path27485"
         d="m 418.47421,442.13761 c -8.65256,9.9377 -19.24164,19.82974 -31.80969,29.7158 -6.37087,5.01133 -18.75671,13.98333 -19.35926,14.02339 -0.44349,0.0295 11.70496,-14.05529 17.45086,-20.23234 11.03318,-11.86115 23.34547,-22.87666 34.2899,-30.67846 4.95512,-3.53226 11.05011,-7.43119 10.81055,-6.91543 -0.52426,1.12874 -5.99619,7.90097 -11.38233,14.08708 z"
         style="fill:#ff0000;fill-opacity:1;stroke:none;stroke-width:0.84055334" />
      <path
         style="fill:#ff0000;fill-opacity:1;stroke:none;stroke-width:0.84055334"
         d="m 320.24749,440.67382 c 7.97977,10.46073 17.89501,20.99757 29.78558,31.65275 6.02742,5.40123 17.79637,15.1328 18.39504,15.21063 0.4406,0.0572 -10.7545,-14.76157 -16.08143,-21.28683 -10.2287,-12.52976 -21.78954,-24.29601 -32.19716,-32.76925 -4.71207,-3.83627 -10.53749,-8.11006 -10.33244,-7.58032 0.4488,1.15934 5.46312,8.26133 10.43041,14.77302 z"
         id="path4058" />
      <path
         style="fill:#000000;fill-opacity:1;stroke:#000000;stroke-width:0.37042129;stroke-opacity:1"
         id="path27457"
         d="m 442.2068,418.07622 a 10.377522,10.013579 0 0 1 -4.46839,-13.42082 10.377522,10.013579 0 0 1 13.86714,-4.43427 10.377522,10.013579 0 0 1 4.7221,13.33969 10.377522,10.013579 0 0 1 -13.78075,4.67833"
         transform="rotate(10.327923)" />
    </g>
    <rect
       y="365.55484"
       x="256.82822"
       height="252.61172"
       width="252.61174"
       id="rect4394"
       style="opacity:1;fill:none;fill-opacity:1;stroke:#000000;stroke-width:3.38827014;stroke-linejoin:miter;stroke-miterlimit:4;stroke-dasharray:none;stroke-dashoffset:0;stroke-opacity:1" />
  </g>
</svg>
